<?xml version="1.0" encoding="UTF-8"?>
<!DOCTYPE svg PUBLIC "-//W3C//DTD SVG 1.1//EN" "http://www.w3.org/Graphics/SVG/1.1/DTD/svg11.dtd">
<svg xmlns="http://www.w3.org/2000/svg" version="1.1" width="500px" height="500px" style="shape-rendering:geometricPrecision; text-rendering:geometricPrecision; image-rendering:optimizeQuality; fill-rule:evenodd; clip-rule:evenodd" xmlns:xlink="http://www.w3.org/1999/xlink">
<g><path style="opacity:1" fill="#85c868" d="M 302.5,12.5 C 276.121,9.48902 249.788,7.82235 223.5,7.5C 244.552,5.84039 265.552,6.34039 286.5,9C 292.058,9.74255 297.392,10.9092 302.5,12.5 Z"/></g>
<g><path style="opacity:1" fill="#7ed857" d="M 223.5,7.5 C 249.788,7.82235 276.121,9.48902 302.5,12.5C 307.809,13.0756 312.809,14.409 317.5,16.5C 321.684,18.1884 326.017,20.0217 330.5,22C 332.387,22.7796 334.054,22.6129 335.5,21.5C 339.323,22.989 342.99,24.6557 346.5,26.5C 347.292,28.2572 348.625,29.5905 350.5,30.5C 349.624,31.2508 348.624,31.7508 347.5,32C 351.194,34.5912 355.194,35.2579 359.5,34C 362.533,36.2077 365.866,37.7077 369.5,38.5C 391.891,50.2125 411.558,65.5458 428.5,84.5C 430.372,89.0432 433.372,92.7099 437.5,95.5C 440.556,97.9485 442.889,100.949 444.5,104.5C 444.489,106.017 443.823,107.184 442.5,108C 443.022,108.561 443.355,109.228 443.5,110C 442.491,111.168 441.491,112.335 440.5,113.5C 441.035,115.101 442.035,115.601 443.5,115C 443.167,114.667 442.833,114.333 442.5,114C 444.259,112.992 445.426,111.492 446,109.5C 447.57,112.815 449.737,115.648 452.5,118C 451.899,119.605 450.899,120.938 449.5,122C 451.055,124.465 453.055,124.965 455.5,123.5C 456.281,124.729 456.781,126.062 457,127.5C 457.333,127.167 457.667,126.833 458,126.5C 459.439,129.86 460.939,133.194 462.5,136.5C 462,136.833 461.5,137.167 461,137.5C 456.504,135.738 454.671,132.405 455.5,127.5C 454.325,127.281 453.325,127.614 452.5,128.5C 455.642,134.07 454.642,138.737 449.5,142.5C 448.717,140.712 447.384,139.712 445.5,139.5C 435.452,122.107 423.452,106.107 409.5,91.5C 407.761,88.7573 405.427,86.7573 402.5,85.5C 398.167,81.5 393.833,77.5 389.5,73.5C 387.206,70.8328 384.873,68.1662 382.5,65.5C 380.223,64.5793 377.89,63.9126 375.5,63.5C 375.607,61.0968 374.607,59.2635 372.5,58C 368.144,56.4847 363.81,54.9847 359.5,53.5C 352.976,50.7365 346.643,47.7365 340.5,44.5C 340.047,43.5416 339.381,42.7083 338.5,42C 332.278,39.7493 326.278,37.0827 320.5,34C 312.466,31.2183 304.133,29.7183 295.5,29.5C 293.852,28.0735 291.852,27.2401 289.5,27C 269.763,24.354 250.097,23.854 230.5,25.5C 228.048,26.0654 225.715,26.7321 223.5,27.5C 223.167,27.5 222.833,27.5 222.5,27.5C 218.466,27.5045 214.466,27.8379 210.5,28.5C 204.902,28.3116 199.568,29.3116 194.5,31.5C 193.325,31.719 192.325,31.3857 191.5,30.5C 192.833,29.8333 194.167,29.1667 195.5,28.5C 195.113,27.2801 194.28,26.6135 193,26.5C 191.343,27.4841 189.677,28.4841 188,29.5C 187.544,30.7441 188.044,31.5774 189.5,32C 182.672,34.4983 175.672,36.3316 168.5,37.5C 167.833,37.1667 167.167,36.8333 166.5,36.5C 167.59,35.3914 167.59,34.3914 166.5,33.5C 164.999,34.7515 163.332,35.7515 161.5,36.5C 162.908,37.2432 164.241,38.0766 165.5,39C 160.864,41.3776 156.531,44.2109 152.5,47.5C 151.713,49.1042 150.38,49.7709 148.5,49.5C 145.365,51.0233 142.032,51.69 138.5,51.5C 138.5,52.5 138.5,53.5 138.5,54.5C 137.167,54.5 135.833,54.5 134.5,54.5C 134.421,53.0695 134.754,51.7362 135.5,50.5C 133.282,49.9426 130.949,49.9426 128.5,50.5C 128.351,51.552 128.517,52.552 129,53.5C 130.586,54.376 132.086,55.376 133.5,56.5C 131.124,58.2089 129.124,60.2089 127.5,62.5C 123.727,63.5536 120.06,64.887 116.5,66.5C 116.67,67.8221 116.337,68.9887 115.5,70C 112.473,71.5137 109.473,73.0137 106.5,74.5C 105.438,76.0217 104.771,77.6883 104.5,79.5C 101.833,81.5 99.5,83.8333 97.5,86.5C 90.8063,92.5271 84.4729,98.8604 78.5,105.5C 75.0432,105.96 73.3765,107.96 73.5,111.5C 72.3995,112.605 71.7329,113.938 71.5,115.5C 66.3134,120.691 62.3134,126.691 59.5,133.5C 57.7484,135.246 56.4151,137.246 55.5,139.5C 54.5041,139.414 53.6708,139.748 53,140.5C 50.9268,143.973 49.4268,147.64 48.5,151.5C 47.325,151.281 46.325,151.614 45.5,152.5C 43.7326,155.037 42.2326,157.703 41,160.5C 38.0731,158.981 37.0731,156.647 38,153.5C 40.3333,151.167 42.6667,148.833 45,146.5C 45.6958,141.437 44.8624,141.27 42.5,146C 36.9527,149.091 34.2861,147.591 34.5,141.5C 36.7659,141.141 38.5993,141.808 40,143.5C 41.1667,142.333 42.3333,141.167 43.5,140C 42.0201,136.105 40.0201,136.271 37.5,140.5C 36.9426,138.282 36.9426,135.949 37.5,133.5C 39.332,129.164 41.6654,125.164 44.5,121.5C 50.1071,117.657 53.7737,112.323 55.5,105.5C 58.0018,103.157 60.5018,100.823 63,98.5C 64.0086,96.9751 64.5086,95.3084 64.5,93.5C 66.371,93.1412 67.871,92.1412 69,90.5C 72.7365,86.2733 76.2365,81.94 79.5,77.5C 84.129,73.8809 88.7957,70.2142 93.5,66.5C 94.7051,65.4231 95.3718,64.0898 95.5,62.5C 106.961,52.9317 119.294,44.5983 132.5,37.5C 137.343,36.4159 142.01,34.7492 146.5,32.5C 149.154,33.2675 151.821,33.4342 154.5,33C 154.957,32.586 155.291,32.086 155.5,31.5C 150.555,30.6093 150.388,29.6093 155,28.5C 159.176,30.4913 161.009,29.158 160.5,24.5C 167.059,21.9291 173.893,20.2624 181,19.5C 182.833,19.6667 184.667,19.8333 186.5,20C 182.901,21.0139 179.235,21.8473 175.5,22.5C 178.145,23.1919 180.645,24.1919 183,25.5C 188.645,21.6256 194.312,21.6256 200,25.5C 201.419,24.5399 202.919,23.7065 204.5,23C 201.322,19.7988 197.656,18.9655 193.5,20.5C 191.991,18.5761 189.991,17.4094 187.5,17C 188.623,15.9563 189.956,15.2896 191.5,15C 196.854,14.6095 202.188,14.1095 207.5,13.5C 207.5,12.5 207.5,11.5 207.5,10.5C 212.806,9.33693 218.14,8.33693 223.5,7.5 Z"/></g>
<g><path style="opacity:1" fill="#81d45e" d="M 207.5,10.5 C 207.5,11.5 207.5,12.5 207.5,13.5C 202.188,14.1095 196.854,14.6095 191.5,15C 189.956,15.2896 188.623,15.9563 187.5,17C 189.991,17.4094 191.991,18.5761 193.5,20.5C 197.656,18.9655 201.322,19.7988 204.5,23C 202.919,23.7065 201.419,24.5399 200,25.5C 194.312,21.6256 188.645,21.6256 183,25.5C 180.645,24.1919 178.145,23.1919 175.5,22.5C 179.235,21.8473 182.901,21.0139 186.5,20C 184.667,19.8333 182.833,19.6667 181,19.5C 173.893,20.2624 167.059,21.9291 160.5,24.5C 161.009,29.158 159.176,30.4913 155,28.5C 150.388,29.6093 150.555,30.6093 155.5,31.5C 155.291,32.086 154.957,32.586 154.5,33C 151.821,33.4342 149.154,33.2675 146.5,32.5C 142.01,34.7492 137.343,36.4159 132.5,37.5C 155.772,23.9626 180.772,14.9626 207.5,10.5 Z"/></g>
<g><path style="opacity:0.859" fill="#83c366" d="M 317.5,16.5 C 323.609,17.7582 329.609,19.4248 335.5,21.5C 334.054,22.6129 332.387,22.7796 330.5,22C 326.017,20.0217 321.684,18.1884 317.5,16.5 Z"/></g>
<g><path style="opacity:1" fill="#8cd46c" d="M 230.5,25.5 C 250.097,23.854 269.763,24.354 289.5,27C 291.852,27.2401 293.852,28.0735 295.5,29.5C 287.37,28.4838 279.37,27.4838 271.5,26.5C 258.01,25.5043 244.344,25.171 230.5,25.5 Z"/></g>
<g><path style="opacity:1" fill="#d7f6c8" d="M 230.5,25.5 C 244.344,25.171 258.01,25.5043 271.5,26.5C 255.486,26.3425 239.486,26.6758 223.5,27.5C 225.715,26.7321 228.048,26.0654 230.5,25.5 Z"/></g>
<g><path style="opacity:1" fill="#fcfefa" d="M 271.5,26.5 C 279.37,27.4838 287.37,28.4838 295.5,29.5C 310.779,33.4819 325.779,38.4819 340.5,44.5C 346.643,47.7365 352.976,50.7365 359.5,53.5C 364.489,57.3308 369.822,60.6641 375.5,63.5C 379.883,67.2141 384.55,70.5475 389.5,73.5C 393.833,77.5 398.167,81.5 402.5,85.5C 404.239,88.2427 406.573,90.2427 409.5,91.5C 423.452,106.107 435.452,122.107 445.5,139.5C 448.214,145.193 450.88,150.859 453.5,156.5C 456.68,166.875 460.18,177.208 464,187.5C 466.944,200.933 469.777,214.267 472.5,227.5C 472.5,228.167 472.833,228.5 473.5,228.5C 473.5,232.167 473.5,235.833 473.5,239.5C 474.371,257.724 473.037,275.724 469.5,293.5C 469.5,294.167 469.5,294.833 469.5,295.5C 467.895,300.666 466.561,305.999 465.5,311.5C 465.5,311.833 465.5,312.167 465.5,312.5C 462.48,319.208 459.813,326.208 457.5,333.5C 455.93,336.314 454.597,339.314 453.5,342.5C 453.5,342.833 453.5,343.167 453.5,343.5C 451.992,345.181 450.992,347.181 450.5,349.5C 448.277,352.144 446.611,355.144 445.5,358.5C 441.075,364.922 437.075,371.589 433.5,378.5C 423.901,390.105 413.901,401.438 403.5,412.5C 393.941,420.428 384.274,428.095 374.5,435.5C 371.489,436.669 368.822,438.336 366.5,440.5C 360.835,442.997 355.502,445.997 350.5,449.5C 347.088,450.075 344.088,451.408 341.5,453.5C 335.301,455.453 329.301,457.786 323.5,460.5C 319.215,461.262 315.215,462.595 311.5,464.5C 308.008,464.446 305.008,465.446 302.5,467.5C 301.5,467.5 300.5,467.5 299.5,467.5C 291.335,468.622 283.335,469.956 275.5,471.5C 274.167,471.5 272.833,471.5 271.5,471.5C 267.429,471.234 263.429,471.567 259.5,472.5C 258.504,478.798 258.17,485.132 258.5,491.5C 253.067,492.802 247.734,492.802 242.5,491.5C 243.49,485.355 243.823,479.022 243.5,472.5C 236.847,471.946 230.18,471.612 223.5,471.5C 222.833,471.5 222.167,471.5 221.5,471.5C 219.095,470.232 216.428,469.565 213.5,469.5C 211.5,469.5 209.5,469.5 207.5,469.5C 195.58,465.891 183.58,462.224 171.5,458.5C 164.045,455.352 156.711,452.019 149.5,448.5C 147.441,446.406 145.107,444.572 142.5,443C 140.846,442.392 139.179,441.892 137.5,441.5C 130.688,438.261 124.355,434.261 118.5,429.5C 111.985,424.741 105.652,419.741 99.5,414.5C 94.5,408.833 89.1667,403.5 83.5,398.5C 80.8715,394.537 77.8715,390.871 74.5,387.5C 73.2141,384.883 71.5475,382.55 69.5,380.5C 69.0679,379.29 68.4013,378.29 67.5,377.5C 62.1265,368.732 56.7932,360.065 51.5,351.5C 51.0075,349.181 50.0075,347.181 48.5,345.5C 47.6176,341.407 45.951,337.74 43.5,334.5C 41.0149,326.378 38.3483,318.378 35.5,310.5C 34.8684,306.298 33.8684,302.298 32.5,298.5C 32.1916,294.64 31.5249,290.974 30.5,287.5C 30.554,280.804 30.2207,274.304 29.5,268C 29.7591,266.739 30.4258,265.739 31.5,265C 30.3333,264.5 29.5,263.667 29,262.5C 28.5026,259.854 28.3359,257.187 28.5,254.5C 25.3019,253.964 22.6353,254.631 20.5,256.5C 16.9378,259.023 12.9378,260.69 8.5,261.5C 7.83626,256.527 7.50292,251.527 7.5,246.5C 13.9188,243.746 20.4188,241.08 27,238.5C 28.0957,224.734 29.929,211.068 32.5,197.5C 34.431,190.929 36.431,184.262 38.5,177.5C 43.3975,164.468 49.0642,151.801 55.5,139.5C 56.4151,137.246 57.7484,135.246 59.5,133.5C 62.4037,132.898 64.0703,131.065 64.5,128C 65.448,127.517 66.448,127.351 67.5,127.5C 69.2431,123.787 70.5764,119.787 71.5,115.5C 71.7329,113.938 72.3995,112.605 73.5,111.5C 75.8363,110.155 77.503,108.155 78.5,105.5C 84.4729,98.8604 90.8063,92.5271 97.5,86.5C 100.764,84.9059 103.431,82.5725 105.5,79.5C 112.849,73.8133 120.182,68.1466 127.5,62.5C 134.446,57.9757 141.446,53.6424 148.5,49.5C 150.38,49.7709 151.713,49.1042 152.5,47.5C 161.904,43.2148 171.571,39.5481 181.5,36.5C 184.579,36.2601 187.579,36.5934 190.5,37.5C 192.813,35.4058 195.48,33.9058 198.5,33C 206.829,31.9698 214.829,30.1364 222.5,27.5C 222.833,27.5 223.167,27.5 223.5,27.5C 239.486,26.6758 255.486,26.3425 271.5,26.5 Z"/></g>
<g><path style="opacity:1" fill="#92d278" d="M 210.5,28.5 C 205.419,30.3449 200.086,31.6782 194.5,32.5C 194.5,32.1667 194.5,31.8333 194.5,31.5C 199.568,29.3116 204.902,28.3116 210.5,28.5 Z"/></g>
<g><path style="opacity:1" fill="#83d060" d="M 346.5,26.5 C 354.647,29.7387 362.314,33.7387 369.5,38.5C 365.866,37.7077 362.533,36.2077 359.5,34C 355.194,35.2579 351.194,34.5912 347.5,32C 348.624,31.7508 349.624,31.2508 350.5,30.5C 348.625,29.5905 347.292,28.2572 346.5,26.5 Z"/></g>
<g><path style="opacity:1" fill="#85d662" d="M 194.5,31.5 C 194.5,31.8333 194.5,32.1667 194.5,32.5C 189.985,33.6103 185.652,34.9436 181.5,36.5C 171.571,39.5481 161.904,43.2148 152.5,47.5C 156.531,44.2109 160.864,41.3776 165.5,39C 164.241,38.0766 162.908,37.2432 161.5,36.5C 163.332,35.7515 164.999,34.7515 166.5,33.5C 167.59,34.3914 167.59,35.3914 166.5,36.5C 167.167,36.8333 167.833,37.1667 168.5,37.5C 175.672,36.3316 182.672,34.4983 189.5,32C 188.044,31.5774 187.544,30.7441 188,29.5C 189.677,28.4841 191.343,27.4841 193,26.5C 194.28,26.6135 195.113,27.2801 195.5,28.5C 194.167,29.1667 192.833,29.8333 191.5,30.5C 192.325,31.3857 193.325,31.719 194.5,31.5 Z"/></g>
<g><path style="opacity:1" fill="#f0fde7" d="M 222.5,27.5 C 214.829,30.1364 206.829,31.9698 198.5,33C 195.48,33.9058 192.813,35.4058 190.5,37.5C 187.579,36.5934 184.579,36.2601 181.5,36.5C 185.652,34.9436 189.985,33.6103 194.5,32.5C 200.086,31.6782 205.419,30.3449 210.5,28.5C 214.466,27.8379 218.466,27.5045 222.5,27.5 Z"/></g>
<g><path style="opacity:1" fill="#91d872" d="M 295.5,29.5 C 304.133,29.7183 312.466,31.2183 320.5,34C 326.278,37.0827 332.278,39.7493 338.5,42C 339.381,42.7083 340.047,43.5416 340.5,44.5C 325.779,38.4819 310.779,33.4819 295.5,29.5 Z"/></g>
<g><path style="opacity:1" fill="#a9dc93" d="M 271.5,39.5 C 252.777,39.0784 234.11,39.7451 215.5,41.5C 234.053,37.2388 252.719,36.5722 271.5,39.5 Z"/></g>
<g><path style="opacity:1" fill="#7ed856" d="M 271.5,39.5 C 272.833,39.5 274.167,39.5 275.5,39.5C 275.918,40.2216 276.584,40.7216 277.5,41C 280.817,41.4983 284.15,41.665 287.5,41.5C 294.471,43.2941 301.471,44.9607 308.5,46.5C 310.042,47.3007 311.708,47.634 313.5,47.5C 315.891,50.917 319.225,52.2503 323.5,51.5C 325.844,52.8028 327.844,54.6361 329.5,57C 332.854,57.4552 336.187,57.9552 339.5,58.5C 339.577,59.7498 340.244,60.5831 341.5,61C 340.207,61.49 338.873,61.6567 337.5,61.5C 337.5,62.5 337.5,63.5 337.5,64.5C 340.021,64.5603 342.354,63.8936 344.5,62.5C 346.325,63.6511 348.325,64.3178 350.5,64.5C 350.5,65.5 350.5,66.5 350.5,67.5C 354.086,68.7926 357.752,69.7926 361.5,70.5C 365.327,72.246 368.993,74.246 372.5,76.5C 377.158,80.1642 381.825,83.8309 386.5,87.5C 388.833,90.5 391.5,93.1667 394.5,95.5C 394.343,96.8734 394.51,98.2068 395,99.5C 399.656,102.661 404.156,105.994 408.5,109.5C 410.235,115.573 413.902,120.24 419.5,123.5C 421.451,124.716 422.951,126.382 424,128.5C 427.089,133.406 429.923,138.406 432.5,143.5C 433.585,149.041 435.919,154.041 439.5,158.5C 440.314,160.766 440.814,163.1 441,165.5C 442.333,166.167 443.333,167.167 444,168.5C 444.175,171.157 444.008,173.824 443.5,176.5C 444.5,176.5 445.5,176.5 446.5,176.5C 446.285,178.179 446.952,179.179 448.5,179.5C 449.594,182.682 450.928,185.682 452.5,188.5C 453.657,191.273 454.324,194.273 454.5,197.5C 454.894,203.965 456.06,210.298 458,216.5C 459.05,231.161 459.884,245.827 460.5,260.5C 459.883,260.611 459.383,260.944 459,261.5C 459.238,272.166 457.904,282.499 455,292.5C 454.501,296.152 454.335,299.818 454.5,303.5C 454.167,303.5 453.833,303.5 453.5,303.5C 451.713,303.93 450.046,303.93 448.5,303.5C 451.482,310.769 450.315,317.436 445,323.5C 444.443,327.594 443.61,331.594 442.5,335.5C 439.579,343.012 435.913,350.012 431.5,356.5C 428.518,361.794 425.518,367.127 422.5,372.5C 408.457,390.34 392.457,406.007 374.5,419.5C 371.487,421.5 368.154,422.5 364.5,422.5C 364.649,423.552 364.483,424.552 364,425.5C 362.008,426.328 360.508,427.661 359.5,429.5C 357.938,429.733 356.605,430.4 355.5,431.5C 350.695,431.749 346.528,433.416 343,436.5C 340.765,435.55 338.598,435.55 336.5,436.5C 337.729,437.281 339.062,437.781 340.5,438C 339.29,439.039 338.29,440.206 337.5,441.5C 336.833,441.5 336.167,441.5 335.5,441.5C 331.826,441.539 328.493,442.539 325.5,444.5C 323.962,444.327 322.462,443.994 321,443.5C 320.5,443.833 320,444.167 319.5,444.5C 320.376,445.251 321.376,445.751 322.5,446C 320.527,446.495 318.527,446.662 316.5,446.5C 316.5,447.5 316.5,448.5 316.5,449.5C 314.883,450.038 313.216,450.371 311.5,450.5C 306.668,451.733 301.668,452.567 296.5,453C 294.03,454.021 291.696,455.188 289.5,456.5C 283.547,457.429 277.547,458.096 271.5,458.5C 267.833,458.5 264.167,458.5 260.5,458.5C 260.5,449.5 260.5,440.5 260.5,431.5C 261.327,426.349 261.827,421.016 262,415.5C 262.5,394.169 262.667,372.836 262.5,351.5C 264.022,309.288 265.355,266.954 266.5,224.5C 268.995,225.199 271.328,226.199 273.5,227.5C 273.833,227.5 274.167,227.5 274.5,227.5C 274.574,229.411 275.574,230.578 277.5,231C 277.167,231.333 276.833,231.667 276.5,232C 277.793,232.49 279.127,232.657 280.5,232.5C 280.5,233.5 280.5,234.5 280.5,235.5C 284.814,236.275 289.147,236.941 293.5,237.5C 295.099,237.232 296.432,237.566 297.5,238.5C 304.655,239.655 311.988,239.822 319.5,239C 321.974,238.963 323.974,238.13 325.5,236.5C 328.632,234.598 331.966,233.265 335.5,232.5C 336.659,230.75 338.326,229.75 340.5,229.5C 343.269,228.563 345.936,227.396 348.5,226C 350.174,224.494 351.174,222.661 351.5,220.5C 355.245,219.243 357.412,216.576 358,212.5C 363.391,206.669 366.225,199.669 366.5,191.5C 367.825,187.555 368.492,183.222 368.5,178.5C 369.316,171.247 367.483,164.913 363,159.5C 361.894,156.485 360.728,153.485 359.5,150.5C 358.817,150.137 358.15,149.804 357.5,149.5C 352.822,143.823 347.489,138.823 341.5,134.5C 341.5,134.167 341.5,133.833 341.5,133.5C 340.161,131.494 338.494,129.827 336.5,128.5C 332.786,127.809 329.452,126.309 326.5,124C 324.19,123.503 321.857,123.337 319.5,123.5C 310.658,122.178 301.658,122.178 292.5,123.5C 291.757,124.182 291.091,124.849 290.5,125.5C 284.771,128.033 279.104,130.866 273.5,134C 272.177,134.816 271.511,135.983 271.5,137.5C 271.167,137.5 270.833,137.5 270.5,137.5C 266.311,138.221 262.645,139.887 259.5,142.5C 256.166,144.613 252.5,145.946 248.5,146.5C 245.774,146.264 243.441,147.097 241.5,149C 238.854,149.497 236.187,149.664 233.5,149.5C 233.5,150.5 233.5,151.5 233.5,152.5C 231.738,152.643 230.071,152.309 228.5,151.5C 225.539,150.19 223.206,148.19 221.5,145.5C 217.475,148.084 214.309,147.084 212,142.5C 210.601,143.227 209.101,143.727 207.5,144C 210.962,146.239 212.295,149.406 211.5,153.5C 215.515,152.488 219.515,151.488 223.5,150.5C 222.587,152.835 221.253,155.001 219.5,157C 216.791,157.772 214.291,158.939 212,160.5C 210.553,160.055 209.22,159.388 208,158.5C 207.5,158.833 207,159.167 206.5,159.5C 207.246,160.736 207.579,162.07 207.5,163.5C 202.417,166.374 197.083,168.708 191.5,170.5C 187.206,170.795 183.539,172.462 180.5,175.5C 179.833,175.5 179.167,175.5 178.5,175.5C 175.478,175.981 172.478,176.647 169.5,177.5C 166.854,179.568 163.854,180.901 160.5,181.5C 160.137,182.183 159.804,182.85 159.5,183.5C 154.597,184.358 149.93,186.024 145.5,188.5C 143.945,188.278 142.611,187.611 141.5,186.5C 137.193,190.48 132.526,193.813 127.5,196.5C 124.193,198.121 120.86,199.787 117.5,201.5C 115.142,201.253 113.142,201.919 111.5,203.5C 102.985,205.858 94.3188,208.024 85.5,210C 85.9574,210.414 86.2907,210.914 86.5,211.5C 84.1908,213.353 81.8575,215.02 79.5,216.5C 74.2147,218.829 68.8814,221.163 63.5,223.5C 58.8191,225.176 54.1525,226.843 49.5,228.5C 47.139,228.674 44.8056,229.007 42.5,229.5C 44.1332,211.009 47.7999,193.009 53.5,175.5C 55.6418,172.2 56.9751,168.533 57.5,164.5C 58.5,164.5 59.5,164.5 60.5,164.5C 60.8901,161.017 61.8901,157.684 63.5,154.5C 64.7164,153.998 65.8831,153.665 67,153.5C 67.49,152.207 67.6567,150.873 67.5,149.5C 70.7794,150.031 72.1128,152.031 71.5,155.5C 69.8008,155.34 68.1341,155.506 66.5,156C 68.1066,157.049 68.7733,158.549 68.5,160.5C 69.8333,160.5 71.1667,160.5 72.5,160.5C 72.1459,157.579 73.1459,155.246 75.5,153.5C 73.4242,149.739 71.4242,146.072 69.5,142.5C 70.5,142.5 71.5,142.5 72.5,142.5C 74.0507,139.381 75.0507,136.048 75.5,132.5C 75.8449,129.802 77.1782,127.802 79.5,126.5C 80.8221,126.33 81.9887,126.663 83,127.5C 85.703,121.999 88.5364,116.666 91.5,111.5C 93.117,108.216 95.4503,105.549 98.5,103.5C 105.471,97.8638 112.137,91.8638 118.5,85.5C 122.051,83.8892 125.051,81.5558 127.5,78.5C 130.803,74.8442 134.803,72.1775 139.5,70.5C 140.873,70.6567 142.207,70.49 143.5,70C 148.341,67.0159 153.341,64.1826 158.5,61.5C 161.107,60.6816 163.774,60.1816 166.5,60C 164.273,59.296 163.94,58.1294 165.5,56.5C 170.13,55.3425 174.797,54.1758 179.5,53C 180.305,51.8873 180.972,50.7206 181.5,49.5C 182.167,49.5 182.833,49.5 183.5,49.5C 189.944,49.6761 195.61,48.0094 200.5,44.5C 204.182,44.6653 207.848,44.4986 211.5,44C 213.066,43.3918 214.4,42.5585 215.5,41.5C 234.11,39.7451 252.777,39.0784 271.5,39.5 Z"/></g>
<g><path style="opacity:1" fill="#adde96" d="M 275.5,39.5 C 279.466,40.1621 283.466,40.4955 287.5,40.5C 287.5,40.8333 287.5,41.1667 287.5,41.5C 284.15,41.665 280.817,41.4983 277.5,41C 276.584,40.7216 275.918,40.2216 275.5,39.5 Z"/></g>
<g><path style="opacity:1" fill="#ebfce1" d="M 308.5,46.5 C 301.471,44.9607 294.471,43.2941 287.5,41.5C 287.5,41.1667 287.5,40.8333 287.5,40.5C 290.545,40.4921 293.545,40.1587 296.5,39.5C 296.5,40.5 296.5,41.5 296.5,42.5C 301.194,42.3093 305.194,43.6427 308.5,46.5 Z"/></g>
<g><path style="opacity:1" fill="#99d97a" d="M 215.5,41.5 C 214.4,42.5585 213.066,43.3918 211.5,44C 207.848,44.4986 204.182,44.6653 200.5,44.5C 205.106,42.1242 210.106,41.1242 215.5,41.5 Z"/></g>
<g><path style="opacity:1" fill="#90d570" d="M 200.5,44.5 C 195.61,48.0094 189.944,49.6761 183.5,49.5C 188.987,47.6113 194.654,45.9446 200.5,44.5 Z"/></g>
<g><path style="opacity:1" fill="#88d667" d="M 148.5,49.5 C 141.446,53.6424 134.446,57.9757 127.5,62.5C 129.124,60.2089 131.124,58.2089 133.5,56.5C 132.086,55.376 130.586,54.376 129,53.5C 128.517,52.552 128.351,51.552 128.5,50.5C 130.949,49.9426 133.282,49.9426 135.5,50.5C 134.754,51.7362 134.421,53.0695 134.5,54.5C 135.833,54.5 137.167,54.5 138.5,54.5C 138.5,53.5 138.5,52.5 138.5,51.5C 142.032,51.69 145.365,51.0233 148.5,49.5 Z"/></g>
<g><path style="opacity:1" fill="#9ddb7f" d="M 313.5,47.5 C 317.09,48.4834 320.423,49.8167 323.5,51.5C 319.225,52.2503 315.891,50.917 313.5,47.5 Z"/></g>
<g><path style="opacity:1" fill="#92d478" d="M 181.5,49.5 C 180.972,50.7206 180.305,51.8873 179.5,53C 174.797,54.1758 170.13,55.3425 165.5,56.5C 170.531,53.6554 175.864,51.3221 181.5,49.5 Z"/></g>
<g><path style="opacity:1" fill="#8fd66f" d="M 323.5,51.5 C 329.195,53.0629 334.529,55.3962 339.5,58.5C 336.187,57.9552 332.854,57.4552 329.5,57C 327.844,54.6361 325.844,52.8028 323.5,51.5 Z"/></g>
<g><path style="opacity:1" fill="#93d575" d="M 359.5,53.5 C 363.81,54.9847 368.144,56.4847 372.5,58C 374.607,59.2635 375.607,61.0968 375.5,63.5C 369.822,60.6641 364.489,57.3308 359.5,53.5 Z"/></g>
<g><path style="opacity:1" fill="#8bd56b" d="M 165.5,56.5 C 163.94,58.1294 164.273,59.296 166.5,60C 163.774,60.1816 161.107,60.6816 158.5,61.5C 153.341,64.1826 148.341,67.0159 143.5,70C 142.207,70.49 140.873,70.6567 139.5,70.5C 147.446,64.5683 156.112,59.9017 165.5,56.5 Z"/></g>
<g><path style="opacity:1" fill="#91d673" d="M 127.5,62.5 C 120.182,68.1466 112.849,73.8133 105.5,79.5C 105.167,79.5 104.833,79.5 104.5,79.5C 104.771,77.6883 105.438,76.0217 106.5,74.5C 109.473,73.0137 112.473,71.5137 115.5,70C 116.337,68.9887 116.67,67.8221 116.5,66.5C 120.06,64.887 123.727,63.5536 127.5,62.5 Z"/></g>
<g><path style="opacity:1" fill="#93d775" d="M 375.5,63.5 C 377.89,63.9126 380.223,64.5793 382.5,65.5C 384.873,68.1662 387.206,70.8328 389.5,73.5C 384.55,70.5475 379.883,67.2141 375.5,63.5 Z"/></g>
<g><path style="opacity:1" fill="#88d465" d="M 339.5,58.5 C 347.514,61.502 354.847,65.502 361.5,70.5C 357.752,69.7926 354.086,68.7926 350.5,67.5C 350.5,66.5 350.5,65.5 350.5,64.5C 348.325,64.3178 346.325,63.6511 344.5,62.5C 342.354,63.8936 340.021,64.5603 337.5,64.5C 337.5,63.5 337.5,62.5 337.5,61.5C 338.873,61.6567 340.207,61.49 341.5,61C 340.244,60.5831 339.577,59.7498 339.5,58.5 Z"/></g>
<g><path style="opacity:1" fill="#86c867" d="M 95.5,62.5 C 95.3718,64.0898 94.7051,65.4231 93.5,66.5C 88.7957,70.2142 84.129,73.8809 79.5,77.5C 84.204,71.7949 89.5374,66.7949 95.5,62.5 Z"/></g>
<g><path style="opacity:1" fill="#eafde4" d="M 372.5,76.5 C 377.638,78.5358 382.304,82.2024 386.5,87.5C 381.825,83.8309 377.158,80.1642 372.5,76.5 Z"/></g>
<g><path style="opacity:1" fill="#daf5c8" d="M 104.5,79.5 C 104.833,79.5 105.167,79.5 105.5,79.5C 103.431,82.5725 100.764,84.9059 97.5,86.5C 99.5,83.8333 101.833,81.5 104.5,79.5 Z"/></g>
<g><path style="opacity:1" fill="#9bd686" d="M 127.5,78.5 C 125.051,81.5558 122.051,83.8892 118.5,85.5C 120.949,82.4442 123.949,80.1108 127.5,78.5 Z"/></g>
<g><path style="opacity:1" fill="#b1e396" d="M 402.5,85.5 C 405.427,86.7573 407.761,88.7573 409.5,91.5C 406.573,90.2427 404.239,88.2427 402.5,85.5 Z"/></g>
<g><path style="opacity:0.933" fill="#88c565" d="M 79.5,77.5 C 76.2365,81.94 72.7365,86.2733 69,90.5C 67.871,92.1412 66.371,93.1412 64.5,93.5C 68.7949,87.5374 73.7949,82.204 79.5,77.5 Z"/></g>
<g><path style="opacity:1" fill="#84c368" d="M 428.5,84.5 C 431.871,87.8706 434.871,91.5373 437.5,95.5C 433.372,92.7099 430.372,89.0432 428.5,84.5 Z"/></g>
<g><path style="opacity:1" fill="#84c663" d="M 64.5,93.5 C 64.5086,95.3084 64.0086,96.9751 63,98.5C 60.5018,100.823 58.0018,103.157 55.5,105.5C 57.7376,100.929 60.7376,96.9289 64.5,93.5 Z"/></g>
<g><path style="opacity:1" fill="#93d172" d="M 394.5,95.5 C 399.5,99.8333 404.167,104.5 408.5,109.5C 404.156,105.994 399.656,102.661 395,99.5C 394.51,98.2068 394.343,96.8734 394.5,95.5 Z"/></g>
<g><path style="opacity:1" fill="#9ad780" d="M 118.5,85.5 C 112.137,91.8638 105.471,97.8638 98.5,103.5C 104.266,96.3956 110.933,90.3956 118.5,85.5 Z"/></g>
<g><path style="opacity:1" fill="#8fd26f" d="M 78.5,105.5 C 77.503,108.155 75.8363,110.155 73.5,111.5C 73.3765,107.96 75.0432,105.96 78.5,105.5 Z"/></g>
<g><path style="opacity:1" fill="#87ca66" d="M 55.5,105.5 C 53.7737,112.323 50.1071,117.657 44.5,121.5C 47.3932,115.612 51.0599,110.278 55.5,105.5 Z"/></g>
<g><path style="opacity:1" fill="#93d677" d="M 408.5,109.5 C 412.922,113.587 416.589,118.254 419.5,123.5C 413.902,120.24 410.235,115.573 408.5,109.5 Z"/></g>
<g><path style="opacity:1" fill="#92d872" d="M 91.5,111.5 C 88.5364,116.666 85.703,121.999 83,127.5C 81.9887,126.663 80.8221,126.33 79.5,126.5C 82.4198,121.732 85.5865,117.066 89,112.5C 89.6708,111.748 90.5041,111.414 91.5,111.5 Z"/></g>
<g><path style="opacity:1" fill="#8dd26f" d="M 319.5,123.5 C 309.772,123.379 300.106,124.045 290.5,125.5C 291.091,124.849 291.757,124.182 292.5,123.5C 301.658,122.178 310.658,122.178 319.5,123.5 Z"/></g>
<g><path style="opacity:1" fill="#ecfbe3" d="M 71.5,115.5 C 70.5764,119.787 69.2431,123.787 67.5,127.5C 66.448,127.351 65.448,127.517 64.5,128C 64.0703,131.065 62.4037,132.898 59.5,133.5C 62.3134,126.691 66.3134,120.691 71.5,115.5 Z"/></g>
<g><path style="opacity:1" fill="#97d679" d="M 319.5,123.5 C 321.857,123.337 324.19,123.503 326.5,124C 329.452,126.309 332.786,127.809 336.5,128.5C 338.494,129.827 340.161,131.494 341.5,133.5C 334.285,129.555 326.952,126.222 319.5,123.5 Z"/></g>
<g><path style="opacity:1" fill="#effde8" d="M 319.5,123.5 C 326.952,126.222 334.285,129.555 341.5,133.5C 341.5,133.833 341.5,134.167 341.5,134.5C 337.687,133.84 334.021,132.674 330.5,131C 326.714,127.184 322.214,126.017 317,127.5C 315.566,127.07 314.399,126.236 313.5,125C 312,124.833 310.5,124.667 309,124.5C 302.514,124.801 296.014,126.134 289.5,128.5C 287.864,129.304 286.364,130.304 285,131.5C 284.586,131.043 284.086,130.709 283.5,130.5C 279.469,132.837 275.469,135.171 271.5,137.5C 271.511,135.983 272.177,134.816 273.5,134C 279.104,130.866 284.771,128.033 290.5,125.5C 300.106,124.045 309.772,123.379 319.5,123.5 Z"/></g>
<g><path style="opacity:1" fill="#83d55f" d="M 444.5,104.5 C 453.917,115.65 461.583,127.983 467.5,141.5C 465.926,141.063 464.759,140.063 464,138.5C 464.269,141.168 464.436,143.668 464.5,146C 463.897,147.825 463.23,149.659 462.5,151.5C 460.833,153.167 459.833,152.833 459.5,150.5C 461.056,148.002 461.89,145.335 462,142.5C 458.478,138.185 455.978,138.518 454.5,143.5C 453.325,143.281 452.325,143.614 451.5,144.5C 453.56,149.314 454.893,154.314 455.5,159.5C 454.833,158.5 454.167,157.5 453.5,156.5C 450.88,150.859 448.214,145.193 445.5,139.5C 447.384,139.712 448.717,140.712 449.5,142.5C 454.642,138.737 455.642,134.07 452.5,128.5C 453.325,127.614 454.325,127.281 455.5,127.5C 454.671,132.405 456.504,135.738 461,137.5C 461.5,137.167 462,136.833 462.5,136.5C 460.939,133.194 459.439,129.86 458,126.5C 457.667,126.833 457.333,127.167 457,127.5C 456.781,126.062 456.281,124.729 455.5,123.5C 453.055,124.965 451.055,124.465 449.5,122C 450.899,120.938 451.899,119.605 452.5,118C 449.737,115.648 447.57,112.815 446,109.5C 445.426,111.492 444.259,112.992 442.5,114C 442.833,114.333 443.167,114.667 443.5,115C 442.035,115.601 441.035,115.101 440.5,113.5C 441.491,112.335 442.491,111.168 443.5,110C 443.355,109.228 443.022,108.561 442.5,108C 443.823,107.184 444.489,106.017 444.5,104.5 Z"/></g>
<g><path style="opacity:1" fill="#9cd382" d="M 270.5,137.5 C 268.337,139.083 266.004,140.416 263.5,141.5C 262.167,141.833 260.833,142.167 259.5,142.5C 262.645,139.887 266.311,138.221 270.5,137.5 Z"/></g>
<g><path style="opacity:1" fill="#81d65b" d="M 37.5,133.5 C 36.9426,135.949 36.9426,138.282 37.5,140.5C 40.0201,136.271 42.0201,136.105 43.5,140C 42.3333,141.167 41.1667,142.333 40,143.5C 38.5993,141.808 36.7659,141.141 34.5,141.5C 34.2861,147.591 36.9527,149.091 42.5,146C 44.8624,141.27 45.6958,141.437 45,146.5C 42.6667,148.833 40.3333,151.167 38,153.5C 37.0731,156.647 38.0731,158.981 41,160.5C 42.2326,157.703 43.7326,155.037 45.5,152.5C 46.325,151.614 47.325,151.281 48.5,151.5C 42.9732,159.237 39.6399,167.904 38.5,177.5C 36.431,184.262 34.431,190.929 32.5,197.5C 32.7592,193.76 32.4259,190.094 31.5,186.5C 32.5301,186.446 33.6967,186.112 35,185.5C 36.2832,178.912 37.7832,172.412 39.5,166C 38.3906,163.953 37.7239,161.787 37.5,159.5C 36.5,159.5 35.5,159.5 34.5,159.5C 33.3174,163.423 32.3174,167.423 31.5,171.5C 28.7283,169.767 26.5616,167.434 25,164.5C 23.3924,168.056 21.5591,171.389 19.5,174.5C 23.6144,159.944 29.6144,146.277 37.5,133.5 Z"/></g>
<g><path style="opacity:1" fill="#82d65e" d="M 248.5,146.5 C 243.027,149.548 237.361,152.215 231.5,154.5C 223.601,157.807 215.601,160.807 207.5,163.5C 207.579,162.07 207.246,160.736 206.5,159.5C 207,159.167 207.5,158.833 208,158.5C 209.22,159.388 210.553,160.055 212,160.5C 214.291,158.939 216.791,157.772 219.5,157C 221.253,155.001 222.587,152.835 223.5,150.5C 219.515,151.488 215.515,152.488 211.5,153.5C 212.295,149.406 210.962,146.239 207.5,144C 209.101,143.727 210.601,143.227 212,142.5C 214.309,147.084 217.475,148.084 221.5,145.5C 223.206,148.19 225.539,150.19 228.5,151.5C 230.071,152.309 231.738,152.643 233.5,152.5C 233.5,151.5 233.5,150.5 233.5,149.5C 236.187,149.664 238.854,149.497 241.5,149C 243.441,147.097 245.774,146.264 248.5,146.5 Z"/></g>
<g><path style="opacity:1" fill="#86d763" d="M 75.5,132.5 C 75.0507,136.048 74.0507,139.381 72.5,142.5C 71.5,142.5 70.5,142.5 69.5,142.5C 71.4242,146.072 73.4242,149.739 75.5,153.5C 73.1459,155.246 72.1459,157.579 72.5,160.5C 71.1667,160.5 69.8333,160.5 68.5,160.5C 68.7733,158.549 68.1066,157.049 66.5,156C 68.1341,155.506 69.8008,155.34 71.5,155.5C 72.1128,152.031 70.7794,150.031 67.5,149.5C 67.6567,150.873 67.49,152.207 67,153.5C 65.8831,153.665 64.7164,153.998 63.5,154.5C 61.8901,157.684 60.8901,161.017 60.5,164.5C 59.5,164.5 58.5,164.5 57.5,164.5C 58.7986,159.236 61.1319,154.569 64.5,150.5C 67.4507,149.191 68.7841,146.857 68.5,143.5C 70.0875,139.317 72.4208,135.65 75.5,132.5 Z"/></g>
<g><path style="opacity:1" fill="#99d47a" d="M 68.5,143.5 C 68.7841,146.857 67.4507,149.191 64.5,150.5C 65.0787,147.669 66.412,145.336 68.5,143.5 Z"/></g>
<g><path style="opacity:1" fill="#effde8" d="M 263.5,141.5 C 262.012,143.489 260.345,145.322 258.5,147C 257.216,147.684 256.049,147.517 255,146.5C 251.496,147.653 248.329,149.32 245.5,151.5C 240.946,153.136 236.279,154.136 231.5,154.5C 237.361,152.215 243.027,149.548 248.5,146.5C 252.5,145.946 256.166,144.613 259.5,142.5C 260.833,142.167 262.167,141.833 263.5,141.5 Z"/></g>
<g><path style="opacity:1" fill="#91d771" d="M 432.5,143.5 C 439.679,153.527 445.013,164.527 448.5,176.5C 448.5,177.5 448.5,178.5 448.5,179.5C 446.952,179.179 446.285,178.179 446.5,176.5C 445.5,176.5 444.5,176.5 443.5,176.5C 444.008,173.824 444.175,171.157 444,168.5C 443.333,167.167 442.333,166.167 441,165.5C 440.814,163.1 440.314,160.766 439.5,158.5C 435.919,154.041 433.585,149.041 432.5,143.5 Z"/></g>
<g><path style="opacity:1" fill="#7dd956" d="M 32.5,197.5 C 31.035,200.156 28.8683,202.156 26,203.5C 25.6905,204.766 25.1905,205.933 24.5,207C 27.3289,205.975 28.6622,207.141 28.5,210.5C 26.7944,219.739 25.7944,229.072 25.5,238.5C 22.4745,238.231 19.8078,239.064 17.5,241C 14.1832,241.498 10.8499,241.665 7.5,241.5C 7.5,240.833 7.5,240.167 7.5,239.5C 9.19686,237.695 10.0302,235.361 10,232.5C 10.4995,226.509 10.6662,220.509 10.5,214.5C 10.5,214.167 10.5,213.833 10.5,213.5C 14.1182,201.22 17.1182,188.553 19.5,175.5C 19.5,175.167 19.5,174.833 19.5,174.5C 21.5591,171.389 23.3924,168.056 25,164.5C 26.5616,167.434 28.7283,169.767 31.5,171.5C 32.3174,167.423 33.3174,163.423 34.5,159.5C 35.5,159.5 36.5,159.5 37.5,159.5C 37.7239,161.787 38.3906,163.953 39.5,166C 37.7832,172.412 36.2832,178.912 35,185.5C 33.6967,186.112 32.5301,186.446 31.5,186.5C 32.4259,190.094 32.7592,193.76 32.5,197.5 Z"/></g>
<g><path style="opacity:1" fill="#87c769" d="M 475.5,159.5 C 477.346,162.54 478.679,165.873 479.5,169.5C 476.54,166.9 475.206,163.567 475.5,159.5 Z"/></g>
<g><path style="opacity:1" fill="#91d574" d="M 55.5,139.5 C 49.0642,151.801 43.3975,164.468 38.5,177.5C 39.6399,167.904 42.9732,159.237 48.5,151.5C 49.4268,147.64 50.9268,143.973 53,140.5C 53.6708,139.748 54.5041,139.414 55.5,139.5 Z"/></g>
<g><path style="opacity:1" fill="#86d664" d="M 357.5,149.5 C 358.15,149.804 358.817,150.137 359.5,150.5C 360.728,153.485 361.894,156.485 363,159.5C 367.483,164.913 369.316,171.247 368.5,178.5C 368.492,183.222 367.825,187.555 366.5,191.5C 366.821,185.974 366.488,180.64 365.5,175.5C 365.701,172.272 365.367,169.105 364.5,166C 362.8,160.77 360.467,155.937 357.5,151.5C 357.5,150.833 357.5,150.167 357.5,149.5 Z"/></g>
<g><path style="opacity:1" fill="#7ed856" d="M 467.5,141.5 C 470.731,147.173 473.398,153.173 475.5,159.5C 475.206,163.567 476.54,166.9 479.5,169.5C 482.275,176.267 484.275,183.267 485.5,190.5C 487.42,207.027 489.753,223.36 492.5,239.5C 492.366,241.292 492.699,242.958 493.5,244.5C 491.875,254.621 491.208,264.954 491.5,275.5C 491.5,276.167 491.5,276.833 491.5,277.5C 489.649,286.072 487.649,294.738 485.5,303.5C 483.697,304.594 483.364,306.261 484.5,308.5C 483.033,312.032 482.366,315.698 482.5,319.5C 482.737,320.791 482.404,321.791 481.5,322.5C 479.077,322.576 477.244,321.576 476,319.5C 473.929,320.775 472.429,322.609 471.5,325C 473.612,326.445 475.778,326.278 478,324.5C 478.667,326.5 478.667,328.5 478,330.5C 473.066,334.299 471.232,339.299 472.5,345.5C 471.5,345.5 470.5,345.5 469.5,345.5C 470.13,349.901 468.797,353.568 465.5,356.5C 464.534,358.396 464.201,360.396 464.5,362.5C 461.379,365.504 459.379,369.171 458.5,373.5C 457.66,375.853 456.326,377.853 454.5,379.5C 449.005,380.461 446.338,383.795 446.5,389.5C 445.749,388.624 445.249,387.624 445,386.5C 444.333,389.167 443.667,389.167 443,386.5C 437.772,393.061 431.939,398.895 425.5,404C 422.5,407.5 419.5,411 416.5,414.5C 414.908,412.316 413.574,409.982 412.5,407.5C 410.5,408.833 408.833,410.5 407.5,412.5C 415.166,414.169 415.833,416.669 409.5,420C 406.5,423.5 403.5,427 400.5,430.5C 399.137,431.879 398.137,431.713 397.5,430C 399.263,428.346 399.596,426.513 398.5,424.5C 398,424.167 397.5,423.833 397,423.5C 395.607,424.615 394.107,425.115 392.5,425C 393.79,422.708 395.457,420.708 397.5,419C 398.744,418.544 399.577,419.044 400,420.5C 403.442,418.598 404.942,415.931 404.5,412.5C 409.173,408.16 413.839,403.827 418.5,399.5C 423.93,392.748 428.93,385.748 433.5,378.5C 436.904,377.21 438.904,378.543 439.5,382.5C 444.594,383.261 444.761,382.261 440,379.5C 439.023,377.26 438.523,374.927 438.5,372.5C 440.144,372.286 441.644,372.62 443,373.5C 444.836,371.869 444.336,371.202 441.5,371.5C 441.343,370.127 441.51,368.793 442,367.5C 442.667,366.167 443.333,366.167 444,367.5C 443.366,362.319 445.533,359.319 450.5,358.5C 451.373,353.466 452.373,348.466 453.5,343.5C 453.5,343.167 453.5,342.833 453.5,342.5C 457.009,340.657 458.343,337.657 457.5,333.5C 460.215,331.236 461.715,328.236 462,324.5C 464.327,320.936 465.494,316.936 465.5,312.5C 465.5,312.167 465.5,311.833 465.5,311.5C 466.315,310.571 467.148,309.571 468,308.5C 468.465,304.152 468.965,299.819 469.5,295.5C 469.5,294.833 469.5,294.167 469.5,293.5C 470.151,292.909 470.818,292.243 471.5,291.5C 473.566,281.787 474.899,272.12 475.5,262.5C 476.659,251.674 476.826,240.674 476,229.5C 475.667,229.833 475.333,230.167 475,230.5C 473.831,224.309 474.665,218.476 477.5,213C 477.333,212.5 477.167,212 477,211.5C 475.686,212.313 474.519,213.313 473.5,214.5C 473.062,211.705 472.062,209.372 470.5,207.5C 466.757,191.221 461.757,175.221 455.5,159.5C 454.893,154.314 453.56,149.314 451.5,144.5C 452.325,143.614 453.325,143.281 454.5,143.5C 455.978,138.518 458.478,138.185 462,142.5C 461.89,145.335 461.056,148.002 459.5,150.5C 459.833,152.833 460.833,153.167 462.5,151.5C 463.23,149.659 463.897,147.825 464.5,146C 464.436,143.668 464.269,141.168 464,138.5C 464.759,140.063 465.926,141.063 467.5,141.5 Z"/></g>
<g><path style="opacity:1" fill="#9fdc89" d="M 57.5,164.5 C 56.9751,168.533 55.6418,172.2 53.5,175.5C 54.0249,171.467 55.3582,167.8 57.5,164.5 Z"/></g>
<g><path style="opacity:1" fill="#94d675" d="M 250.5,173.5 C 250.223,170.552 250.556,167.719 251.5,165C 250.207,164.51 248.873,164.343 247.5,164.5C 249.308,163.606 251.142,162.606 253,161.5C 253.5,161.833 254,162.167 254.5,162.5C 253.133,166.276 251.8,169.943 250.5,173.5 Z"/></g>
<g><path style="opacity:1" fill="#9dd983" d="M 191.5,170.5 C 188.101,172.517 184.434,174.184 180.5,175.5C 183.539,172.462 187.206,170.795 191.5,170.5 Z"/></g>
<g><path style="opacity:1" fill="#8dd86b" d="M 243.5,165.5 C 242.599,167.727 240.933,168.727 238.5,168.5C 238.271,170.433 237.438,172.1 236,173.5C 231.636,171.456 230.136,172.456 231.5,176.5C 227.486,176.334 223.486,176.501 219.5,177C 215.761,179.251 211.761,180.751 207.5,181.5C 207.47,180.503 207.97,179.836 209,179.5C 220.568,174.965 232.068,170.298 243.5,165.5 Z"/></g>
<g><path style="opacity:1" fill="#7ed856" d="M 247.5,164.5 C 248.873,164.343 250.207,164.51 251.5,165C 250.556,167.719 250.223,170.552 250.5,173.5C 250.5,173.833 250.5,174.167 250.5,174.5C 249.676,178.312 249.176,182.312 249,186.5C 248.072,225.495 247.572,264.495 247.5,303.5C 247.828,314.346 247.494,325.013 246.5,335.5C 245.681,338.305 245.181,341.305 245,344.5C 244.5,373.498 244.333,402.498 244.5,431.5C 243.507,440.318 243.173,449.318 243.5,458.5C 231.515,457.407 219.515,456.407 207.5,455.5C 204.303,455.595 201.303,454.928 198.5,453.5C 196.485,452.076 194.152,451.41 191.5,451.5C 185.129,448.322 178.462,445.655 171.5,443.5C 169.974,442.094 168.307,440.928 166.5,440C 169.028,439.002 169.028,438.169 166.5,437.5C 159.498,440.018 156.165,437.684 156.5,430.5C 155.5,430.5 154.5,430.5 153.5,430.5C 153.36,432.124 154.027,433.29 155.5,434C 153.203,434.018 150.869,433.851 148.5,433.5C 146.566,432.89 144.899,431.89 143.5,430.5C 143.769,428.571 143.269,426.905 142,425.5C 141.667,425.833 141.333,426.167 141,426.5C 139.56,424.954 137.727,424.121 135.5,424C 136.672,423.581 137.672,422.915 138.5,422C 136.821,421.605 135.155,421.772 133.5,422.5C 130.871,420.965 128.204,419.632 125.5,418.5C 120.957,416.628 117.29,413.628 114.5,409.5C 112.431,406.427 109.764,404.094 106.5,402.5C 104.833,401.5 103.5,400.167 102.5,398.5C 101.854,396.844 101.187,395.177 100.5,393.5C 100.529,391.971 101.196,390.804 102.5,390C 100.292,389.064 98.9582,387.398 98.5,385C 95.8015,384.387 93.1348,383.72 90.5,383C 89.842,381.095 88.6753,379.595 87,378.5C 86.3333,377.5 86.3333,376.5 87,375.5C 88.5185,375.943 89.6852,375.276 90.5,373.5C 92.0931,375.806 93.5931,378.139 95,380.5C 96.1505,378.246 96.4838,375.913 96,373.5C 95.586,373.957 95.086,374.291 94.5,374.5C 93.3076,372.258 92.3076,369.925 91.5,367.5C 90.9984,366.479 90.3317,366.312 89.5,367C 89.8333,367.333 90.1667,367.667 90.5,368C 88.3333,369.5 86.5,371.333 85,373.5C 83.1969,369.665 81.8636,369.331 81,372.5C 80.3486,370.765 80.5153,369.098 81.5,367.5C 80.8946,365.519 79.8946,365.185 78.5,366.5C 77.7285,364.138 76.8952,361.804 76,359.5C 75.7645,361.119 74.9311,362.119 73.5,362.5C 71.3473,356.364 68.014,351.031 63.5,346.5C 63.4431,345.391 63.1098,344.391 62.5,343.5C 61.2129,338.58 60.2129,333.58 59.5,328.5C 58.5,328.5 57.5,328.5 56.5,328.5C 54.1749,324.163 52.6749,319.496 52,314.5C 51.6174,313.944 51.1174,313.611 50.5,313.5C 48.9028,311.152 47.9028,308.486 47.5,305.5C 47.8412,301.84 47.1745,298.507 45.5,295.5C 43.1144,280.262 41.4478,264.929 40.5,249.5C 42.5093,247.935 44.8427,246.935 47.5,246.5C 51.8107,245.351 56.144,244.184 60.5,243C 61.5707,242.148 62.5707,241.315 63.5,240.5C 63.5,239.833 63.8333,239.5 64.5,239.5C 68.533,238.975 72.1996,237.642 75.5,235.5C 83.5688,231.483 91.9021,227.816 100.5,224.5C 105.653,223.595 110.653,222.095 115.5,220C 118.239,218.974 120.572,217.474 122.5,215.5C 128.059,214.652 133.059,212.652 137.5,209.5C 139.102,207.926 141.102,207.259 143.5,207.5C 147.397,207.274 150.73,205.941 153.5,203.5C 154.873,203.657 156.207,203.49 157.5,203C 160.949,201.251 164.283,199.417 167.5,197.5C 171.474,196.521 175.474,195.521 179.5,194.5C 181.627,192.829 183.627,191.163 185.5,189.5C 191.632,189.243 197.632,188.243 203.5,186.5C 202.975,185.808 202.308,185.308 201.5,185C 203.093,184.051 204.426,182.885 205.5,181.5C 206.167,181.5 206.833,181.5 207.5,181.5C 211.761,180.751 215.761,179.251 219.5,177C 223.486,176.501 227.486,176.334 231.5,176.5C 230.136,172.456 231.636,171.456 236,173.5C 237.438,172.1 238.271,170.433 238.5,168.5C 240.933,168.727 242.599,167.727 243.5,165.5C 244.833,165.167 246.167,164.833 247.5,164.5 Z"/></g>
<g><path style="opacity:1" fill="#8fd570" d="M 178.5,175.5 C 172.515,178.603 166.182,181.27 159.5,183.5C 159.804,182.85 160.137,182.183 160.5,181.5C 163.854,180.901 166.854,179.568 169.5,177.5C 172.478,176.647 175.478,175.981 178.5,175.5 Z"/></g>
<g><path style="opacity:1" fill="#aedf96" d="M 448.5,176.5 C 450.806,180.085 452.139,184.085 452.5,188.5C 450.928,185.682 449.594,182.682 448.5,179.5C 448.5,178.5 448.5,177.5 448.5,176.5 Z"/></g>
<g><path style="opacity:1" fill="#89d769" d="M 205.5,181.5 C 204.426,182.885 203.093,184.051 201.5,185C 202.308,185.308 202.975,185.808 203.5,186.5C 197.632,188.243 191.632,189.243 185.5,189.5C 192.011,186.658 198.678,183.991 205.5,181.5 Z"/></g>
<g><path style="opacity:1" fill="#8dd66c" d="M 159.5,183.5 C 149.164,188.368 138.497,192.702 127.5,196.5C 132.526,193.813 137.193,190.48 141.5,186.5C 142.611,187.611 143.945,188.278 145.5,188.5C 149.93,186.024 154.597,184.358 159.5,183.5 Z"/></g>
<g><path style="opacity:1" fill="#effee7" d="M 357.5,151.5 C 360.467,155.937 362.8,160.77 364.5,166C 365.367,169.105 365.701,172.272 365.5,175.5C 366.154,183.854 365.154,191.854 362.5,199.5C 364.346,190.267 364.846,180.933 364,171.5C 361.726,164.847 359.56,158.18 357.5,151.5 Z"/></g>
<g><path style="opacity:1" fill="#92d373" d="M 185.5,189.5 C 183.627,191.163 181.627,192.829 179.5,194.5C 175.474,195.521 171.474,196.521 167.5,197.5C 173.173,194.269 179.173,191.602 185.5,189.5 Z"/></g>
<g><path style="opacity:1" fill="#9dd980" d="M 167.5,197.5 C 164.283,199.417 160.949,201.251 157.5,203C 156.207,203.49 154.873,203.657 153.5,203.5C 154.058,202.21 155.058,201.377 156.5,201C 160.009,199.241 163.675,198.074 167.5,197.5 Z"/></g>
<g><path style="opacity:1" fill="#88cc69" d="M 19.5,175.5 C 17.1182,188.553 14.1182,201.22 10.5,213.5C 11.9541,200.356 14.9541,187.689 19.5,175.5 Z"/></g>
<g><path style="opacity:1" fill="#97d67b" d="M 53.5,175.5 C 47.7999,193.009 44.1332,211.009 42.5,229.5C 44.8056,229.007 47.139,228.674 49.5,228.5C 48.8333,229.167 48.1667,229.833 47.5,230.5C 45.4496,230.961 43.4496,231.628 41.5,232.5C 41.1667,231 40.8333,229.5 40.5,228C 42.2066,210.342 46.0399,193.175 52,176.5C 52.3826,175.944 52.8826,175.611 53.5,175.5 Z"/></g>
<g><path style="opacity:1" fill="#93d774" d="M 153.5,203.5 C 150.73,205.941 147.397,207.274 143.5,207.5C 146.309,205.103 149.642,203.77 153.5,203.5 Z"/></g>
<g><path style="opacity:1" fill="#93d677" d="M 365.5,175.5 C 366.488,180.64 366.821,185.974 366.5,191.5C 366.225,199.669 363.391,206.669 358,212.5C 357.412,216.576 355.245,219.243 351.5,220.5C 351.174,222.661 350.174,224.494 348.5,226C 345.936,227.396 343.269,228.563 340.5,229.5C 350.76,221.647 358.093,211.647 362.5,199.5C 365.154,191.854 366.154,183.854 365.5,175.5 Z"/></g>
<g><path style="opacity:1" fill="#8bd46b" d="M 111.5,203.5 C 105.5,206.167 99.5,208.833 93.5,211.5C 88.6481,212.783 83.9815,214.45 79.5,216.5C 81.8575,215.02 84.1908,213.353 86.5,211.5C 86.2907,210.914 85.9574,210.414 85.5,210C 94.3188,208.024 102.985,205.858 111.5,203.5 Z"/></g>
<g><path style="opacity:1" fill="#eafce0" d="M 117.5,201.5 C 110.49,206.935 102.49,210.268 93.5,211.5C 99.5,208.833 105.5,206.167 111.5,203.5C 113.142,201.919 115.142,201.253 117.5,201.5 Z"/></g>
<g><path style="opacity:1" fill="#95d679" d="M 250.5,174.5 C 250.5,185.5 250.5,196.5 250.5,207.5C 249.833,239.509 248.833,271.509 247.5,303.5C 247.572,264.495 248.072,225.495 249,186.5C 249.176,182.312 249.676,178.312 250.5,174.5 Z"/></g>
<g><path style="opacity:1" fill="#a2d987" d="M 137.5,209.5 C 133.059,212.652 128.059,214.652 122.5,215.5C 127.105,212.738 132.105,210.738 137.5,209.5 Z"/></g>
<g><path style="opacity:1" fill="#f0fde6" d="M 453.5,156.5 C 454.167,157.5 454.833,158.5 455.5,159.5C 461.757,175.221 466.757,191.221 470.5,207.5C 470.963,210.482 471.296,213.482 471.5,216.5C 471.942,220.154 472.276,223.821 472.5,227.5C 469.777,214.267 466.944,200.933 464,187.5C 460.18,177.208 456.68,166.875 453.5,156.5 Z"/></g>
<g><path style="opacity:1" fill="#83d55f" d="M 470.5,207.5 C 472.062,209.372 473.062,211.705 473.5,214.5C 474.519,213.313 475.686,212.313 477,211.5C 477.167,212 477.333,212.5 477.5,213C 474.665,218.476 473.831,224.309 475,230.5C 475.333,230.167 475.667,229.833 476,229.5C 476.826,240.674 476.659,251.674 475.5,262.5C 476.132,254.427 475.465,246.76 473.5,239.5C 473.5,235.833 473.5,232.167 473.5,228.5C 473.917,224.183 473.25,220.183 471.5,216.5C 471.296,213.482 470.963,210.482 470.5,207.5 Z"/></g>
<g><path style="opacity:1" fill="#89cc69" d="M 485.5,190.5 C 489.962,206.401 492.295,222.734 492.5,239.5C 489.753,223.36 487.42,207.027 485.5,190.5 Z"/></g>
<g><path style="opacity:1" fill="#9bd882" d="M 122.5,215.5 C 120.572,217.474 118.239,218.974 115.5,220C 110.653,222.095 105.653,223.595 100.5,224.5C 107.757,221.52 115.091,218.52 122.5,215.5 Z"/></g>
<g><path style="opacity:1" fill="#a1d78c" d="M 471.5,216.5 C 473.25,220.183 473.917,224.183 473.5,228.5C 472.833,228.5 472.5,228.167 472.5,227.5C 472.276,223.821 471.942,220.154 471.5,216.5 Z"/></g>
<g><path style="opacity:1" fill="#86cc64" d="M 10.5,214.5 C 10.6662,220.509 10.4995,226.509 10,232.5C 10.0302,235.361 9.19686,237.695 7.5,239.5C 8.04732,230.976 9.04732,222.643 10.5,214.5 Z"/></g>
<g><path style="opacity:1" fill="#e7fbdd" d="M 63.5,223.5 C 63.4226,224.75 62.756,225.583 61.5,226C 56.963,228.013 52.2963,229.513 47.5,230.5C 48.1667,229.833 48.8333,229.167 49.5,228.5C 54.1525,226.843 58.8191,225.176 63.5,223.5 Z"/></g>
<g><path style="opacity:1" fill="#90d56f" d="M 454.5,197.5 C 455.927,199.148 456.76,201.148 457,203.5C 458.498,210.257 459.665,216.923 460.5,223.5C 461.739,235.985 461.739,248.318 460.5,260.5C 459.884,245.827 459.05,231.161 458,216.5C 456.06,210.298 454.894,203.965 454.5,197.5 Z"/></g>
<g><path style="opacity:1" fill="#90d66e" d="M 274.5,227.5 C 278.429,230.631 282.763,232.964 287.5,234.5C 289.5,235.5 291.5,236.5 293.5,237.5C 289.147,236.941 284.814,236.275 280.5,235.5C 280.5,234.5 280.5,233.5 280.5,232.5C 279.127,232.657 277.793,232.49 276.5,232C 276.833,231.667 277.167,231.333 277.5,231C 275.574,230.578 274.574,229.411 274.5,227.5 Z"/></g>
<g><path style="opacity:1" fill="#9ad87d" d="M 75.5,235.5 C 72.1996,237.642 68.533,238.975 64.5,239.5C 67.8004,237.358 71.467,236.025 75.5,235.5 Z"/></g>
<g><path style="opacity:1" fill="#f0fde7" d="M 335.5,232.5 C 331.966,233.265 328.632,234.598 325.5,236.5C 316.261,238.125 306.927,238.791 297.5,238.5C 296.432,237.566 295.099,237.232 293.5,237.5C 291.5,236.5 289.5,235.5 287.5,234.5C 298.65,236.488 309.983,236.988 321.5,236C 325.916,233.966 330.583,232.8 335.5,232.5 Z"/></g>
<g><path style="opacity:1" fill="#94d17b" d="M 325.5,236.5 C 323.974,238.13 321.974,238.963 319.5,239C 311.988,239.822 304.655,239.655 297.5,238.5C 306.927,238.791 316.261,238.125 325.5,236.5 Z"/></g>
<g><path style="opacity:1" fill="#8fd46e" d="M 32.5,197.5 C 29.929,211.068 28.0957,224.734 27,238.5C 20.4188,241.08 13.9188,243.746 7.5,246.5C 7.5,244.833 7.5,243.167 7.5,241.5C 10.8499,241.665 14.1832,241.498 17.5,241C 19.8078,239.064 22.4745,238.231 25.5,238.5C 25.7944,229.072 26.7944,219.739 28.5,210.5C 28.6622,207.141 27.3289,205.975 24.5,207C 25.1905,205.933 25.6905,204.766 26,203.5C 28.8683,202.156 31.035,200.156 32.5,197.5 Z"/></g>
<g><path style="opacity:1" fill="#9bd87f" d="M 63.5,240.5 C 62.5707,241.315 61.5707,242.148 60.5,243C 56.144,244.184 51.8107,245.351 47.5,246.5C 52.3992,243.531 57.7326,241.531 63.5,240.5 Z"/></g>
<g><path style="opacity:1" fill="#ebfce0" d="M 460.5,223.5 C 461.29,224.609 461.79,225.942 462,227.5C 462.667,242.5 462.667,257.5 462,272.5C 461.082,276.28 460.249,279.946 459.5,283.5C 459.778,275.83 460.111,268.164 460.5,260.5C 461.739,248.318 461.739,235.985 460.5,223.5 Z"/></g>
<g><path style="opacity:0.918" fill="#84bd67" d="M 493.5,244.5 C 493.372,255.02 492.706,265.353 491.5,275.5C 491.208,264.954 491.875,254.621 493.5,244.5 Z"/></g>
<g><path style="opacity:1" fill="#f1fce8" d="M 30.5,287.5 C 28.2574,277.103 27.2574,266.436 27.5,255.5C 25.5853,255.216 23.9187,255.549 22.5,256.5C 21.8333,256.5 21.1667,256.5 20.5,256.5C 22.6353,254.631 25.3019,253.964 28.5,254.5C 28.3359,257.187 28.5026,259.854 29,262.5C 29.5,263.667 30.3333,264.5 31.5,265C 30.4258,265.739 29.7591,266.739 29.5,268C 30.2207,274.304 30.554,280.804 30.5,287.5 Z"/></g>
<g><path style="opacity:1" fill="#8bd46c" d="M 460.5,260.5 C 460.111,268.164 459.778,275.83 459.5,283.5C 457.202,290.024 455.536,296.691 454.5,303.5C 454.335,299.818 454.501,296.152 455,292.5C 457.904,282.499 459.238,272.166 459,261.5C 459.383,260.944 459.883,260.611 460.5,260.5 Z"/></g>
<g><path style="opacity:1" fill="#94d776" d="M 40.5,249.5 C 41.4478,264.929 43.1144,280.262 45.5,295.5C 43.7803,291.443 42.6137,287.11 42,282.5C 41.6331,276.796 40.9664,271.13 40,265.5C 39.1826,259.984 39.3493,254.65 40.5,249.5 Z"/></g>
<g><path style="opacity:1" fill="#edfee3" d="M 268.5,222.5 C 267.542,222.047 266.708,221.381 266,220.5C 265.667,220.833 265.333,221.167 265,221.5C 264.535,243.674 263.702,265.674 262.5,287.5C 262.508,264.827 262.841,242.161 263.5,219.5C 265.167,219.5 266.833,219.5 268.5,219.5C 268.5,220.5 268.5,221.5 268.5,222.5 Z"/></g>
<g><path style="opacity:1" fill="#90ce72" d="M 20.5,256.5 C 21.1667,256.5 21.8333,256.5 22.5,256.5C 22.0472,257.458 21.3805,258.292 20.5,259C 17.2582,260.282 14.0916,261.782 11,263.5C 10.5005,269.825 10.3338,276.158 10.5,282.5C 9.01666,275.721 8.34999,268.721 8.5,261.5C 12.9378,260.69 16.9378,259.023 20.5,256.5 Z"/></g>
<g><path style="opacity:1" fill="#97da7a" d="M 473.5,239.5 C 475.465,246.76 476.132,254.427 475.5,262.5C 474.899,272.12 473.566,281.787 471.5,291.5C 470.818,292.243 470.151,292.909 469.5,293.5C 473.037,275.724 474.371,257.724 473.5,239.5 Z"/></g>
<g><path style="opacity:1" fill="#92d574" d="M 22.5,256.5 C 23.9187,255.549 25.5853,255.216 27.5,255.5C 27.2574,266.436 28.2574,277.103 30.5,287.5C 31.5249,290.974 32.1916,294.64 32.5,298.5C 29.2156,293.12 27.3823,287.12 27,280.5C 26.5003,272.507 26.3336,264.507 26.5,256.5C 25.1667,256.5 23.8333,256.5 22.5,256.5 Z"/></g>
<g><path style="opacity:1" fill="#9fd985" d="M 45.5,295.5 C 47.1745,298.507 47.8412,301.84 47.5,305.5C 45.8255,302.493 45.1588,299.16 45.5,295.5 Z"/></g>
<g><path style="opacity:1" fill="#94d676" d="M 268.5,222.5 C 270.473,223.806 272.139,225.473 273.5,227.5C 271.328,226.199 268.995,225.199 266.5,224.5C 265.355,266.954 264.022,309.288 262.5,351.5C 262.167,351.5 261.833,351.5 261.5,351.5C 261.627,335.161 261.96,318.828 262.5,302.5C 262.5,297.5 262.5,292.5 262.5,287.5C 263.702,265.674 264.535,243.674 265,221.5C 265.333,221.167 265.667,220.833 266,220.5C 266.708,221.381 267.542,222.047 268.5,222.5 Z"/></g>
<g><path style="opacity:1" fill="#82d25c" d="M 10.5,283.5 C 12.3264,289.67 13.9931,296.003 15.5,302.5C 16.1667,301.5 16.8333,300.5 17.5,299.5C 18.2432,300.908 19.0766,302.241 20,303.5C 20.5252,306.867 20.0252,310.034 18.5,313C 18.396,315.145 19.0627,316.979 20.5,318.5C 21.1818,313.711 22.3485,309.045 24,304.5C 24.3333,305.167 24.6667,305.833 25,306.5C 24.5207,315.161 23.6874,323.494 22.5,331.5C 16.3569,316.143 12.3569,300.143 10.5,283.5 Z"/></g>
<g><path style="opacity:1" fill="#a7dc8c" d="M 32.5,298.5 C 33.8684,302.298 34.8684,306.298 35.5,310.5C 32.886,307.069 31.886,303.069 32.5,298.5 Z"/></g>
<g><path style="opacity:1" fill="#9ad87e" d="M 469.5,295.5 C 468.965,299.819 468.465,304.152 468,308.5C 467.148,309.571 466.315,310.571 465.5,311.5C 466.561,305.999 467.895,300.666 469.5,295.5 Z"/></g>
<g><path style="opacity:1" fill="#83ca64" d="M 491.5,277.5 C 490.013,291.943 487.013,305.943 482.5,319.5C 482.366,315.698 483.033,312.032 484.5,308.5C 483.364,306.261 483.697,304.594 485.5,303.5C 487.649,294.738 489.649,286.072 491.5,277.5 Z"/></g>
<g><path style="opacity:1" fill="#82d060" d="M 481.5,322.5 C 477.766,336.716 472.099,350.049 464.5,362.5C 464.201,360.396 464.534,358.396 465.5,356.5C 468.797,353.568 470.13,349.901 469.5,345.5C 470.5,345.5 471.5,345.5 472.5,345.5C 471.232,339.299 473.066,334.299 478,330.5C 478.667,328.5 478.667,326.5 478,324.5C 475.778,326.278 473.612,326.445 471.5,325C 472.429,322.609 473.929,320.775 476,319.5C 477.244,321.576 479.077,322.576 481.5,322.5 Z"/></g>
<g><path style="opacity:1" fill="#f3feea" d="M 262.5,302.5 C 261.96,318.828 261.627,335.161 261.5,351.5C 260.7,378.162 260.033,404.829 259.5,431.5C 259.5,440.833 259.5,450.167 259.5,459.5C 258.338,439.671 258.171,419.671 259,399.5C 259.893,370.172 260.56,340.839 261,311.5C 261.181,308.305 261.681,305.305 262.5,302.5 Z"/></g>
<g><path style="opacity:1" fill="#8bd369" d="M 453.5,303.5 C 451.659,314.898 447.992,325.564 442.5,335.5C 443.61,331.594 444.443,327.594 445,323.5C 450.315,317.436 451.482,310.769 448.5,303.5C 450.046,303.93 451.713,303.93 453.5,303.5 Z"/></g>
<g><path style="opacity:1" fill="#9bd87e" d="M 465.5,312.5 C 465.494,316.936 464.327,320.936 462,324.5C 461.715,328.236 460.215,331.236 457.5,333.5C 459.813,326.208 462.48,319.208 465.5,312.5 Z"/></g>
<g><path style="opacity:1" fill="#8bd56a" d="M 50.5,313.5 C 51.1174,313.611 51.6174,313.944 52,314.5C 52.6749,319.496 54.1749,324.163 56.5,328.5C 57.5,328.5 58.5,328.5 59.5,328.5C 60.2129,333.58 61.2129,338.58 62.5,343.5C 56.999,334.228 52.999,324.228 50.5,313.5 Z"/></g>
<g><path style="opacity:1" fill="#9ad67f" d="M 43.5,334.5 C 45.951,337.74 47.6176,341.407 48.5,345.5C 45.4622,342.461 43.7955,338.794 43.5,334.5 Z"/></g>
<g><path style="opacity:1" fill="#97d57c" d="M 457.5,333.5 C 458.343,337.657 457.009,340.657 453.5,342.5C 454.597,339.314 455.93,336.314 457.5,333.5 Z"/></g>
<g><path style="opacity:1" fill="#83cd60" d="M 22.5,331.5 C 24.1042,332.287 24.7709,333.62 24.5,335.5C 25.8221,335.33 26.9887,335.663 28,336.5C 28.1786,339.553 28.6786,342.553 29.5,345.5C 30.5237,346.853 31.857,347.52 33.5,347.5C 33.2785,350.067 32.6118,352.401 31.5,354.5C 27.9119,347.07 24.9119,339.403 22.5,331.5 Z"/></g>
<g><path style="opacity:1" fill="#a2da85" d="M 450.5,349.5 C 449.939,353.168 448.272,356.168 445.5,358.5C 446.611,355.144 448.277,352.144 450.5,349.5 Z"/></g>
<g><path style="opacity:1" fill="#7ed857" d="M 22.5,256.5 C 23.8333,256.5 25.1667,256.5 26.5,256.5C 26.3336,264.507 26.5003,272.507 27,280.5C 27.3823,287.12 29.2156,293.12 32.5,298.5C 31.886,303.069 32.886,307.069 35.5,310.5C 38.3483,318.378 41.0149,326.378 43.5,334.5C 43.7955,338.794 45.4622,342.461 48.5,345.5C 50.0075,347.181 51.0075,349.181 51.5,351.5C 54.5939,360.224 58.7605,368.557 64,376.5C 65.0113,377.337 66.1779,377.67 67.5,377.5C 68.4013,378.29 69.0679,379.29 69.5,380.5C 70.1495,382.435 70.4828,384.435 70.5,386.5C 71.9587,386.433 73.2921,386.766 74.5,387.5C 77.8715,390.871 80.8715,394.537 83.5,398.5C 85.3883,401.899 87.8883,404.899 91,407.5C 91.6836,409.479 91.1836,411.146 89.5,412.5C 91.3649,413.666 93.0316,413.333 94.5,411.5C 95.9397,412.952 97.6064,413.952 99.5,414.5C 105.652,419.741 111.985,424.741 118.5,429.5C 118.414,430.496 118.748,431.329 119.5,432C 124.142,435.591 128.809,439.091 133.5,442.5C 136.88,443.923 140.214,445.257 143.5,446.5C 145.685,446.704 147.685,447.37 149.5,448.5C 156.711,452.019 164.045,455.352 171.5,458.5C 172.483,459.85 173.816,460.85 175.5,461.5C 185.883,465.429 196.549,468.096 207.5,469.5C 209.5,469.5 211.5,469.5 213.5,469.5C 215.838,471.04 218.505,471.706 221.5,471.5C 222.167,471.5 222.833,471.5 223.5,471.5C 229.605,472.996 235.938,473.663 242.5,473.5C 242.5,479.167 242.5,484.833 242.5,490.5C 237.5,490.5 232.5,490.5 227.5,490.5C 219.079,488.361 210.412,486.528 201.5,485C 198.518,484.502 195.518,484.335 192.5,484.5C 189.848,484.59 187.515,483.924 185.5,482.5C 181.715,480.734 177.715,479.234 173.5,478C 174.96,477.189 175.293,476.355 174.5,475.5C 170.882,476.319 167.216,476.319 163.5,475.5C 154.285,472.557 145.619,468.557 137.5,463.5C 135.164,459.992 131.831,457.992 127.5,457.5C 127.5,456.5 127.5,455.5 127.5,454.5C 125.097,454.552 122.764,454.219 120.5,453.5C 118.566,452.89 116.899,451.89 115.5,450.5C 115.543,445.697 113.377,443.697 109,444.5C 107.953,441.501 105.787,440.001 102.5,440C 100.383,438.269 98.8834,436.102 98,433.5C 97.586,433.957 97.086,434.291 96.5,434.5C 95.3777,433.37 94.0443,432.703 92.5,432.5C 89.4372,428.434 85.7706,425.101 81.5,422.5C 60.7067,403.015 44.04,380.348 31.5,354.5C 32.6118,352.401 33.2785,350.067 33.5,347.5C 31.857,347.52 30.5237,346.853 29.5,345.5C 28.6786,342.553 28.1786,339.553 28,336.5C 26.9887,335.663 25.8221,335.33 24.5,335.5C 24.7709,333.62 24.1042,332.287 22.5,331.5C 23.6874,323.494 24.5207,315.161 25,306.5C 24.6667,305.833 24.3333,305.167 24,304.5C 22.3485,309.045 21.1818,313.711 20.5,318.5C 19.0627,316.979 18.396,315.145 18.5,313C 20.0252,310.034 20.5252,306.867 20,303.5C 19.0766,302.241 18.2432,300.908 17.5,299.5C 16.8333,300.5 16.1667,301.5 15.5,302.5C 13.9931,296.003 12.3264,289.67 10.5,283.5C 10.5,283.167 10.5,282.833 10.5,282.5C 10.3338,276.158 10.5005,269.825 11,263.5C 14.0916,261.782 17.2582,260.282 20.5,259C 21.3805,258.292 22.0472,257.458 22.5,256.5 Z"/></g>
<g><path style="opacity:1" fill="#97d678" d="M 63.5,346.5 C 68.014,351.031 71.3473,356.364 73.5,362.5C 69.8098,357.458 66.4765,352.125 63.5,346.5 Z"/></g>
<g><path style="opacity:1" fill="#94d577" d="M 51.5,351.5 C 56.7932,360.065 62.1265,368.732 67.5,377.5C 66.1779,377.67 65.0113,377.337 64,376.5C 58.7605,368.557 54.5939,360.224 51.5,351.5 Z"/></g>
<g><path style="opacity:1" fill="#7fc464" d="M 464.5,362.5 C 463.258,366.655 461.258,370.322 458.5,373.5C 459.379,369.171 461.379,365.504 464.5,362.5 Z"/></g>
<g><path style="opacity:1" fill="#87d665" d="M 453.5,343.5 C 452.373,348.466 451.373,353.466 450.5,358.5C 445.533,359.319 443.366,362.319 444,367.5C 443.333,366.167 442.667,366.167 442,367.5C 441.51,368.793 441.343,370.127 441.5,371.5C 444.336,371.202 444.836,371.869 443,373.5C 441.644,372.62 440.144,372.286 438.5,372.5C 438.523,374.927 439.023,377.26 440,379.5C 444.761,382.261 444.594,383.261 439.5,382.5C 438.904,378.543 436.904,377.21 433.5,378.5C 437.075,371.589 441.075,364.922 445.5,358.5C 448.272,356.168 449.939,353.168 450.5,349.5C 450.992,347.181 451.992,345.181 453.5,343.5 Z"/></g>
<g><path style="opacity:1" fill="#e7fada" d="M 431.5,356.5 C 430.049,360.842 428.383,365.176 426.5,369.5C 425.148,370.524 423.815,371.524 422.5,372.5C 425.518,367.127 428.518,361.794 431.5,356.5 Z"/></g>
<g><path style="opacity:1" fill="#99d87b" d="M 69.5,380.5 C 71.5475,382.55 73.2141,384.883 74.5,387.5C 73.2921,386.766 71.9587,386.433 70.5,386.5C 70.4828,384.435 70.1495,382.435 69.5,380.5 Z"/></g>
<g><path style="opacity:1" fill="#83d65e" d="M 102.5,398.5 C 90.5633,388.24 80.8966,376.24 73.5,362.5C 74.9311,362.119 75.7645,361.119 76,359.5C 76.8952,361.804 77.7285,364.138 78.5,366.5C 79.8946,365.185 80.8946,365.519 81.5,367.5C 80.5153,369.098 80.3486,370.765 81,372.5C 81.8636,369.331 83.1969,369.665 85,373.5C 86.5,371.333 88.3333,369.5 90.5,368C 90.1667,367.667 89.8333,367.333 89.5,367C 90.3317,366.312 90.9984,366.479 91.5,367.5C 92.3076,369.925 93.3076,372.258 94.5,374.5C 95.086,374.291 95.586,373.957 96,373.5C 96.4838,375.913 96.1505,378.246 95,380.5C 93.5931,378.139 92.0931,375.806 90.5,373.5C 89.6852,375.276 88.5185,375.943 87,375.5C 86.3333,376.5 86.3333,377.5 87,378.5C 88.6753,379.595 89.842,381.095 90.5,383C 93.1348,383.72 95.8015,384.387 98.5,385C 98.9582,387.398 100.292,389.064 102.5,390C 101.196,390.804 100.529,391.971 100.5,393.5C 101.187,395.177 101.854,396.844 102.5,398.5 Z"/></g>
<g><path style="opacity:1" fill="#95d779" d="M 246.5,335.5 C 246.496,367.675 245.83,399.675 244.5,431.5C 244.333,402.498 244.5,373.498 245,344.5C 245.181,341.305 245.681,338.305 246.5,335.5 Z"/></g>
<g><path style="opacity:1" fill="#97d87a" d="M 261.5,351.5 C 261.833,351.5 262.167,351.5 262.5,351.5C 262.667,372.836 262.5,394.169 262,415.5C 261.827,421.016 261.327,426.349 260.5,431.5C 260.167,431.5 259.833,431.5 259.5,431.5C 260.033,404.829 260.7,378.162 261.5,351.5 Z"/></g>
<g><path style="opacity:1" fill="#98d780" d="M 106.5,402.5 C 109.764,404.094 112.431,406.427 114.5,409.5C 111.236,407.906 108.569,405.573 106.5,402.5 Z"/></g>
<g><path style="opacity:1" fill="#92d374" d="M 433.5,378.5 C 428.93,385.748 423.93,392.748 418.5,399.5C 413.839,403.827 409.173,408.16 404.5,412.5C 404.167,412.5 403.833,412.5 403.5,412.5C 413.901,401.438 423.901,390.105 433.5,378.5 Z"/></g>
<g><path style="opacity:1" fill="#8bd56c" d="M 83.5,398.5 C 89.1667,403.5 94.5,408.833 99.5,414.5C 97.6064,413.952 95.9397,412.952 94.5,411.5C 93.0316,413.333 91.3649,413.666 89.5,412.5C 91.1836,411.146 91.6836,409.479 91,407.5C 87.8883,404.899 85.3883,401.899 83.5,398.5 Z"/></g>
<g><path style="opacity:1" fill="#81c365" d="M 81.5,422.5 C 85.7706,425.101 89.4372,428.434 92.5,432.5C 88.2294,429.899 84.5628,426.566 81.5,422.5 Z"/></g>
<g><path style="opacity:1" fill="#8ed471" d="M 374.5,419.5 C 369.783,423.209 364.783,426.543 359.5,429.5C 360.508,427.661 362.008,426.328 364,425.5C 364.483,424.552 364.649,423.552 364.5,422.5C 368.154,422.5 371.487,421.5 374.5,419.5 Z"/></g>
<g><path style="opacity:1" fill="#8cd76a" d="M 125.5,418.5 C 128.204,419.632 130.871,420.965 133.5,422.5C 135.155,421.772 136.821,421.605 138.5,422C 137.672,422.915 136.672,423.581 135.5,424C 137.727,424.121 139.56,424.954 141,426.5C 141.333,426.167 141.667,425.833 142,425.5C 143.269,426.905 143.769,428.571 143.5,430.5C 142.448,430.649 141.448,430.483 140.5,430C 135.315,426.303 130.315,422.47 125.5,418.5 Z"/></g>
<g><path style="opacity:1" fill="#effde5" d="M 250.5,207.5 C 250.667,238.168 250.5,268.835 250,299.5C 248.5,352.165 247.167,404.831 246,457.5C 245.722,458.416 245.222,459.082 244.5,459.5C 244.5,450.167 244.5,440.833 244.5,431.5C 245.83,399.675 246.496,367.675 246.5,335.5C 247.494,325.013 247.828,314.346 247.5,303.5C 248.833,271.509 249.833,239.509 250.5,207.5 Z"/></g>
<g><path style="opacity:1" fill="#80d65a" d="M 454.5,379.5 C 432.492,414.341 403.492,441.841 367.5,462C 362.265,464.785 356.932,467.285 351.5,469.5C 350.029,464.736 346.696,462.569 341.5,463C 344.82,461.739 345.154,460.072 342.5,458C 339.621,457.126 336.955,457.46 334.5,459C 338.378,460.065 338.378,460.899 334.5,461.5C 332.5,461.167 330.5,460.833 328.5,460.5C 326.465,461.204 324.465,461.871 322.5,462.5C 322.833,461.833 323.167,461.167 323.5,460.5C 329.301,457.786 335.301,455.453 341.5,453.5C 345.165,453.498 348.165,452.165 350.5,449.5C 352.292,449.634 353.958,449.301 355.5,448.5C 355.631,449.239 355.464,449.906 355,450.5C 352.854,451.376 351.021,452.709 349.5,454.5C 350.167,455.167 350.833,455.833 351.5,456.5C 351,456.833 350.5,457.167 350,457.5C 347.995,456.217 345.828,455.217 343.5,454.5C 343.167,454.833 342.833,455.167 342.5,455.5C 343.945,457.063 345.611,458.396 347.5,459.5C 349.009,463.354 351.676,465.687 355.5,466.5C 355.986,463.245 354.986,460.578 352.5,458.5C 356.833,456.167 360.167,452.833 362.5,448.5C 364.167,449.5 365.5,450.833 366.5,452.5C 364.772,454.226 362.772,455.559 360.5,456.5C 359.784,458.482 358.617,460.149 357,461.5C 356.333,462.5 356.333,463.5 357,464.5C 362.173,461.855 367.007,458.521 371.5,454.5C 368.904,452.703 369.237,451.369 372.5,450.5C 373.5,452.167 374.833,453.5 376.5,454.5C 377.354,453.478 378.354,452.645 379.5,452C 379.167,451.667 378.833,451.333 378.5,451C 380.5,450.667 382.5,450.333 384.5,450C 384.957,449.586 385.291,449.086 385.5,448.5C 384.167,447.833 382.833,447.167 381.5,446.5C 382.325,445.614 383.325,445.281 384.5,445.5C 385.783,442.99 386.783,440.323 387.5,437.5C 385.516,437.617 383.85,436.95 382.5,435.5C 380.013,435.782 377.347,435.782 374.5,435.5C 384.274,428.095 393.941,420.428 403.5,412.5C 403.833,412.5 404.167,412.5 404.5,412.5C 404.942,415.931 403.442,418.598 400,420.5C 399.577,419.044 398.744,418.544 397.5,419C 395.457,420.708 393.79,422.708 392.5,425C 394.107,425.115 395.607,424.615 397,423.5C 397.5,423.833 398,424.167 398.5,424.5C 399.596,426.513 399.263,428.346 397.5,430C 398.137,431.713 399.137,431.879 400.5,430.5C 403.5,427 406.5,423.5 409.5,420C 415.833,416.669 415.166,414.169 407.5,412.5C 408.833,410.5 410.5,408.833 412.5,407.5C 413.574,409.982 414.908,412.316 416.5,414.5C 419.5,411 422.5,407.5 425.5,404C 431.939,398.895 437.772,393.061 443,386.5C 443.667,389.167 444.333,389.167 445,386.5C 445.249,387.624 445.749,388.624 446.5,389.5C 446.338,383.795 449.005,380.461 454.5,379.5 Z"/></g>
<g><path style="opacity:1" fill="#8fd66d" d="M 355.5,431.5 C 350.059,435.765 344.059,439.098 337.5,441.5C 338.29,440.206 339.29,439.039 340.5,438C 339.062,437.781 337.729,437.281 336.5,436.5C 338.598,435.55 340.765,435.55 343,436.5C 346.528,433.416 350.695,431.749 355.5,431.5 Z"/></g>
<g><path style="opacity:1" fill="#8fd66c" d="M 191.5,451.5 C 176.135,447.827 161.802,441.827 148.5,433.5C 150.869,433.851 153.203,434.018 155.5,434C 154.027,433.29 153.36,432.124 153.5,430.5C 154.5,430.5 155.5,430.5 156.5,430.5C 156.165,437.684 159.498,440.018 166.5,437.5C 169.028,438.169 169.028,439.002 166.5,440C 168.307,440.928 169.974,442.094 171.5,443.5C 178.462,445.655 185.129,448.322 191.5,451.5 Z"/></g>
<g><path style="opacity:1" fill="#a2d68d" d="M 244.5,431.5 C 244.5,440.833 244.5,450.167 244.5,459.5C 240.833,460.833 237.167,460.833 233.5,459.5C 237.042,459.813 240.375,459.479 243.5,458.5C 243.173,449.318 243.507,440.318 244.5,431.5 Z"/></g>
<g><path style="opacity:1" fill="#82ce5e" d="M 92.5,432.5 C 94.0443,432.703 95.3777,433.37 96.5,434.5C 97.086,434.291 97.586,433.957 98,433.5C 98.8834,436.102 100.383,438.269 102.5,440C 105.787,440.001 107.953,441.501 109,444.5C 113.377,443.697 115.543,445.697 115.5,450.5C 107.236,445.233 99.5691,439.233 92.5,432.5 Z"/></g>
<g><path style="opacity:1" fill="#8dd36d" d="M 118.5,429.5 C 124.355,434.261 130.688,438.261 137.5,441.5C 139.751,442.818 141.751,444.484 143.5,446.5C 140.214,445.257 136.88,443.923 133.5,442.5C 128.809,439.091 124.142,435.591 119.5,432C 118.748,431.329 118.414,430.496 118.5,429.5 Z"/></g>
<g><path style="opacity:1" fill="#94d57a" d="M 366.5,440.5 C 365.71,441.794 364.71,442.961 363.5,444C 360.609,445.274 357.942,446.774 355.5,448.5C 353.958,449.301 352.292,449.634 350.5,449.5C 355.502,445.997 360.835,442.997 366.5,440.5 Z"/></g>
<g><path style="opacity:1" fill="#7ed955" d="M 374.5,435.5 C 377.347,435.782 380.013,435.782 382.5,435.5C 383.85,436.95 385.516,437.617 387.5,437.5C 386.783,440.323 385.783,442.99 384.5,445.5C 383.325,445.281 382.325,445.614 381.5,446.5C 382.833,447.167 384.167,447.833 385.5,448.5C 385.291,449.086 384.957,449.586 384.5,450C 382.5,450.333 380.5,450.667 378.5,451C 378.833,451.333 379.167,451.667 379.5,452C 378.354,452.645 377.354,453.478 376.5,454.5C 374.833,453.5 373.5,452.167 372.5,450.5C 369.237,451.369 368.904,452.703 371.5,454.5C 367.007,458.521 362.173,461.855 357,464.5C 356.333,463.5 356.333,462.5 357,461.5C 358.617,460.149 359.784,458.482 360.5,456.5C 362.772,455.559 364.772,454.226 366.5,452.5C 365.5,450.833 364.167,449.5 362.5,448.5C 360.167,452.833 356.833,456.167 352.5,458.5C 354.986,460.578 355.986,463.245 355.5,466.5C 351.676,465.687 349.009,463.354 347.5,459.5C 345.611,458.396 343.945,457.063 342.5,455.5C 342.833,455.167 343.167,454.833 343.5,454.5C 345.828,455.217 347.995,456.217 350,457.5C 350.5,457.167 351,456.833 351.5,456.5C 350.833,455.833 350.167,455.167 349.5,454.5C 351.021,452.709 352.854,451.376 355,450.5C 355.464,449.906 355.631,449.239 355.5,448.5C 357.942,446.774 360.609,445.274 363.5,444C 364.71,442.961 365.71,441.794 366.5,440.5C 368.822,438.336 371.489,436.669 374.5,435.5 Z"/></g>
<g><path style="opacity:1" fill="#e5fbd8" d="M 137.5,441.5 C 139.179,441.892 140.846,442.392 142.5,443C 145.107,444.572 147.441,446.406 149.5,448.5C 147.685,447.37 145.685,446.704 143.5,446.5C 141.751,444.484 139.751,442.818 137.5,441.5 Z"/></g>
<g><path style="opacity:1" fill="#91d76e" d="M 335.5,441.5 C 333.65,443.572 331.317,444.905 328.5,445.5C 324.685,447.297 320.685,448.63 316.5,449.5C 316.5,448.5 316.5,447.5 316.5,446.5C 318.527,446.662 320.527,446.495 322.5,446C 321.376,445.751 320.376,445.251 319.5,444.5C 320,444.167 320.5,443.833 321,443.5C 322.462,443.994 323.962,444.327 325.5,444.5C 328.493,442.539 331.826,441.539 335.5,441.5 Z"/></g>
<g><path style="opacity:1" fill="#8bd16e" d="M 259.5,431.5 C 259.833,431.5 260.167,431.5 260.5,431.5C 260.5,440.5 260.5,449.5 260.5,458.5C 264.167,458.5 267.833,458.5 271.5,458.5C 267.702,459.483 263.702,459.817 259.5,459.5C 259.5,450.167 259.5,440.833 259.5,431.5 Z"/></g>
<g><path style="opacity:1" fill="#effdea" d="M 328.5,445.5 C 326.326,447.081 323.993,448.581 321.5,450C 317.465,450.874 313.465,451.874 309.5,453C 311.044,453.29 312.377,453.956 313.5,455C 308.531,454.346 303.531,454.513 298.5,455.5C 298.611,454.883 298.944,454.383 299.5,454C 303.953,453.975 307.953,452.808 311.5,450.5C 313.216,450.371 314.883,450.038 316.5,449.5C 320.685,448.63 324.685,447.297 328.5,445.5 Z"/></g>
<g><path style="opacity:1" fill="#a7d88e" d="M 191.5,451.5 C 194.152,451.41 196.485,452.076 198.5,453.5C 195.848,453.59 193.515,452.924 191.5,451.5 Z"/></g>
<g><path style="opacity:1" fill="#8ed470" d="M 311.5,450.5 C 307.953,452.808 303.953,453.975 299.5,454C 298.944,454.383 298.611,454.883 298.5,455.5C 297.833,455.5 297.167,455.5 296.5,455.5C 294.139,455.674 291.806,456.007 289.5,456.5C 291.696,455.188 294.03,454.021 296.5,453C 301.668,452.567 306.668,451.733 311.5,450.5 Z"/></g>
<g><path style="opacity:1" fill="#9bd781" d="M 350.5,449.5 C 348.165,452.165 345.165,453.498 341.5,453.5C 344.088,451.408 347.088,450.075 350.5,449.5 Z"/></g>
<g><path style="opacity:1" fill="#82c761" d="M 120.5,453.5 C 122.764,454.219 125.097,454.552 127.5,454.5C 127.5,455.5 127.5,456.5 127.5,457.5C 131.831,457.992 135.164,459.992 137.5,463.5C 131.332,460.92 125.665,457.586 120.5,453.5 Z"/></g>
<g><path style="opacity:1" fill="#91d571" d="M 207.5,455.5 C 219.515,456.407 231.515,457.407 243.5,458.5C 240.375,459.479 237.042,459.813 233.5,459.5C 224.509,459.444 215.842,458.111 207.5,455.5 Z"/></g>
<g><path style="opacity:1" fill="#ebfbe1" d="M 296.5,455.5 C 295.909,456.151 295.243,456.818 294.5,457.5C 289.758,458.114 285.091,458.947 280.5,460C 273.321,460.821 266.321,460.655 259.5,459.5C 263.702,459.817 267.702,459.483 271.5,458.5C 277.547,458.096 283.547,457.429 289.5,456.5C 291.806,456.007 294.139,455.674 296.5,455.5 Z"/></g>
<g><path style="opacity:1" fill="#a3da89" d="M 323.5,460.5 C 323.167,461.167 322.833,461.833 322.5,462.5C 318.833,463.167 315.167,463.833 311.5,464.5C 315.215,462.595 319.215,461.262 323.5,460.5 Z"/></g>
<g><path style="opacity:1" fill="#97d579" d="M 311.5,464.5 C 308.984,466.323 305.984,467.323 302.5,467.5C 305.008,465.446 308.008,464.446 311.5,464.5 Z"/></g>
<g><path style="opacity:1" fill="#92d374" d="M 171.5,458.5 C 183.58,462.224 195.58,465.891 207.5,469.5C 196.549,468.096 185.883,465.429 175.5,461.5C 173.816,460.85 172.483,459.85 171.5,458.5 Z"/></g>
<g><path style="opacity:1" fill="#7ed856" d="M 351.5,469.5 C 347.895,469.568 344.561,470.568 341.5,472.5C 339.553,471.723 337.72,470.723 336,469.5C 333.177,470.409 330.343,470.576 327.5,470C 326.241,470.923 324.908,471.757 323.5,472.5C 328.303,473.351 332.97,473.684 337.5,473.5C 333.122,475.639 328.455,476.972 323.5,477.5C 322.873,478.417 322.539,479.417 322.5,480.5C 316.532,483.149 310.198,484.816 303.5,485.5C 290.945,487.415 278.279,489.082 265.5,490.5C 263.5,490.5 261.5,490.5 259.5,490.5C 259.103,485.041 259.603,479.708 261,474.5C 264.892,474.171 268.392,473.171 271.5,471.5C 272.833,471.5 274.167,471.5 275.5,471.5C 281.871,471.512 288.204,471.012 294.5,470C 296.315,469.243 297.981,468.41 299.5,467.5C 300.5,467.5 301.5,467.5 302.5,467.5C 305.984,467.323 308.984,466.323 311.5,464.5C 315.167,463.833 318.833,463.167 322.5,462.5C 324.465,461.871 326.465,461.204 328.5,460.5C 330.5,460.833 332.5,461.167 334.5,461.5C 338.378,460.899 338.378,460.065 334.5,459C 336.955,457.46 339.621,457.126 342.5,458C 345.154,460.072 344.82,461.739 341.5,463C 346.696,462.569 350.029,464.736 351.5,469.5 Z"/></g>
<g><path style="opacity:1" fill="#b3de9c" d="M 213.5,469.5 C 216.428,469.565 219.095,470.232 221.5,471.5C 218.505,471.706 215.838,471.04 213.5,469.5 Z"/></g>
<g><path style="opacity:1" fill="#9ad983" d="M 299.5,467.5 C 297.981,468.41 296.315,469.243 294.5,470C 288.204,471.012 281.871,471.512 275.5,471.5C 283.335,469.956 291.335,468.622 299.5,467.5 Z"/></g>
<g><path style="opacity:1" fill="#82d25c" d="M 351.5,469.5 C 342.286,474.13 332.62,477.797 322.5,480.5C 322.539,479.417 322.873,478.417 323.5,477.5C 328.455,476.972 333.122,475.639 337.5,473.5C 332.97,473.684 328.303,473.351 323.5,472.5C 324.908,471.757 326.241,470.923 327.5,470C 330.343,470.576 333.177,470.409 336,469.5C 337.72,470.723 339.553,471.723 341.5,472.5C 344.561,470.568 347.895,469.568 351.5,469.5 Z"/></g>
<g><path style="opacity:1" fill="#9ad382" d="M 271.5,471.5 C 268.392,473.171 264.892,474.171 261,474.5C 259.603,479.708 259.103,485.041 259.5,490.5C 261.5,490.5 263.5,490.5 265.5,490.5C 265.5,490.833 265.5,491.167 265.5,491.5C 263.167,491.5 260.833,491.5 258.5,491.5C 258.17,485.132 258.504,478.798 259.5,472.5C 263.429,471.567 267.429,471.234 271.5,471.5 Z"/></g>
<g><path style="opacity:0.996" fill="#84c963" d="M 163.5,475.5 C 167.216,476.319 170.882,476.319 174.5,475.5C 175.293,476.355 174.96,477.189 173.5,478C 177.715,479.234 181.715,480.734 185.5,482.5C 177.832,480.943 170.499,478.609 163.5,475.5 Z"/></g>
<g><path style="opacity:1" fill="#8ece73" d="M 223.5,471.5 C 230.18,471.612 236.847,471.946 243.5,472.5C 243.823,479.022 243.49,485.355 242.5,491.5C 237.305,491.821 232.305,491.487 227.5,490.5C 232.5,490.5 237.5,490.5 242.5,490.5C 242.5,484.833 242.5,479.167 242.5,473.5C 235.938,473.663 229.605,472.996 223.5,471.5 Z"/></g>
<g><path style="opacity:1" fill="#85c963" d="M 192.5,484.5 C 195.518,484.335 198.518,484.502 201.5,485C 210.412,486.528 219.079,488.361 227.5,490.5C 215.452,490.02 203.785,488.02 192.5,484.5 Z"/></g>
<g><path style="opacity:1" fill="#81c664" d="M 303.5,485.5 C 291.199,488.994 278.532,490.994 265.5,491.5C 265.5,491.167 265.5,490.833 265.5,490.5C 278.279,489.082 290.945,487.415 303.5,485.5 Z"/></g>
</svg>
